<svg width="408" height="533" viewBox="0 0 408 533" fill="none" xmlns="http://www.w3.org/2000/svg">
<path d="M2.11162 527.503C1.00878 527.441 0.0647652 528.285 0.00311737 529.388C-0.0585305 530.491 0.785529 531.435 1.88838 531.496L2.11162 527.503ZM241 405L242.861 404.267L242.861 404.267L241 405ZM401.396 1.36472C401.046 0.317356 399.912 -0.247278 398.865 0.103577L381.797 5.82108C380.75 6.17194 380.185 7.30542 380.536 8.35278C380.887 9.40015 382.02 9.96478 383.067 9.61393L398.239 4.5317L403.321 19.7031C403.672 20.7505 404.805 21.3151 405.853 20.9642C406.9 20.6134 407.465 19.4799 407.114 18.4325L401.396 1.36472ZM2 529.5C1.88838 531.496 1.88996 531.496 1.89265 531.497C1.89505 531.497 1.89887 531.497 1.90365 531.497C1.91321 531.498 1.92723 531.499 1.94567 531.5C1.98255 531.502 2.03711 531.504 2.10904 531.508C2.25289 531.516 2.46624 531.527 2.74663 531.54C3.30738 531.567 4.13628 531.605 5.21365 531.648C7.36834 531.735 10.5171 531.843 14.5025 531.931C22.4727 532.107 33.7919 532.199 47.1997 531.869C74.0017 531.208 109.21 528.856 142.715 522.071C176.149 515.301 208.212 504.056 228.433 485.391C238.584 476.022 245.786 464.749 248.626 451.233C251.465 437.726 249.908 422.162 242.861 404.267L239.139 405.733C245.97 423.078 247.354 437.836 244.712 450.41C242.072 462.975 235.373 473.542 225.72 482.452C206.333 500.346 175.176 511.416 141.921 518.15C108.736 524.87 73.7857 527.212 47.1012 527.87C33.7657 528.199 22.5097 528.106 14.5905 527.932C10.6312 527.845 7.50668 527.737 5.37431 527.652C4.30814 527.609 3.49005 527.571 2.9397 527.545C2.66453 527.531 2.4563 527.521 2.31746 527.514C2.24805 527.51 2.19598 527.507 2.16157 527.505C2.14437 527.504 2.13158 527.504 2.12324 527.503C2.11907 527.503 2.11617 527.503 2.11408 527.503C2.11229 527.503 2.11162 527.503 2 529.5ZM242.861 404.267C217.714 340.414 240.17 274.012 277.748 206.346C296.52 172.545 318.973 138.585 340.976 104.587C362.958 70.6219 384.484 36.6295 401.29 2.89176L397.71 1.10824C381.016 34.6205 359.605 68.4406 337.618 102.413C315.652 136.353 293.105 170.455 274.252 204.404C236.58 272.238 213.286 340.086 239.139 405.733L242.861 404.267Z" fill="#001BDE"/>
</svg>
