<svg width="54" height="54" viewBox="0 0 54 54" fill="none" xmlns="http://www.w3.org/2000/svg">
<circle cx="27" cy="27" r="24.5" fill="white" stroke="#001BDE" stroke-width="5"/>
<g clip-path="url(#clip0_132_3941)">
<path d="M38.125 32.525V36.945C38.1251 37.2615 38.0013 37.5662 37.7783 37.7977C37.5554 38.0293 37.25 38.1703 36.9238 38.1925C36.3593 38.23 35.8982 38.25 35.5417 38.25C24.1272 38.25 14.875 29.2963 14.875 18.25C14.875 17.905 14.8944 17.4588 14.9344 16.9125C14.9573 16.5968 15.1031 16.3013 15.3423 16.0855C15.5816 15.8698 15.8965 15.7499 16.2235 15.75H20.7908C20.9511 15.7498 21.1056 15.8073 21.2245 15.9113C21.3434 16.0152 21.4181 16.1582 21.4341 16.3125C21.4638 16.6 21.4909 16.8288 21.5168 17.0025C21.7734 18.7362 22.2995 20.4223 23.0771 22.0038C23.1998 22.2538 23.1197 22.5525 22.8872 22.7125L20.0998 24.64C21.8041 28.4831 24.9688 31.5457 28.94 33.195L30.9291 30.5025C31.0104 30.3925 31.1291 30.3136 31.2643 30.2796C31.3996 30.2455 31.5429 30.2585 31.6693 30.3162C33.3032 31.0673 35.0451 31.5751 36.8359 31.8225C37.0155 31.8475 37.2518 31.875 37.5463 31.9025C37.7055 31.9183 37.853 31.9907 37.9601 32.1057C38.0673 32.2207 38.1265 32.3701 38.1263 32.525H38.125Z" fill="#001BDE"/>
</g>
<defs>
<clipPath id="clip0_132_3941">
<rect width="31" height="30" fill="white" transform="translate(11 12)"/>
</clipPath>
</defs>
</svg>
