<svg width="42" height="42" viewBox="0 0 42 42" fill="none" xmlns="http://www.w3.org/2000/svg">
<circle cx="21" cy="21" r="18.5" fill="#001BDE" stroke="#001BDE" stroke-width="5"/>
<path d="M12.8826 18.3773C14.3052 18.3773 15.4585 17.196 15.4585 15.7387C15.4585 14.2815 14.3052 13.1001 12.8826 13.1001C11.4599 13.1001 10.3066 14.2815 10.3066 15.7387C10.3066 17.196 11.4599 18.3773 12.8826 18.3773Z" fill="white"/>
<path d="M26.3014 15.8001C27.724 15.8001 28.8773 14.6187 28.8773 13.1615C28.8773 11.7042 27.724 10.5229 26.3014 10.5229C24.8787 10.5229 23.7255 11.7042 23.7255 13.1615C23.7255 14.6187 24.8787 15.8001 26.3014 15.8001Z" fill="white"/>
<path d="M30.9022 18.3773C32.373 23.7974 29.25 29.4201 23.9266 30.9357C18.6033 32.4514 13.0956 29.2861 11.6248 23.866" stroke="white" stroke-width="3" stroke-linecap="round"/>
</svg>
