<svg width="188" height="55" viewBox="0 0 188 55" fill="none" xmlns="http://www.w3.org/2000/svg">
<circle cx="27.5" cy="27.5" r="25" fill="white" stroke="#001BDE" stroke-width="5"/>
<path d="M16.8703 24.0655C18.7333 24.0655 20.2435 22.5186 20.2435 20.6103C20.2435 18.702 18.7333 17.155 16.8703 17.155C15.0073 17.155 13.4971 18.702 13.4971 20.6103C13.4971 22.5186 15.0073 24.0655 16.8703 24.0655Z" fill="#001BDE"/>
<path d="M34.4426 20.6906C36.3055 20.6906 37.8158 19.1436 37.8158 17.2353C37.8158 15.327 36.3055 13.78 34.4426 13.78C32.5796 13.78 31.0693 15.327 31.0693 17.2353C31.0693 19.1436 32.5796 20.6906 34.4426 20.6906Z" fill="#001BDE"/>
<path d="M40.4669 24.0655C42.393 31.1633 38.3033 38.5263 31.3322 40.511C24.3612 42.4958 17.1487 38.3508 15.2227 31.2531" stroke="#001BDE" stroke-width="5" stroke-linecap="round"/>
<path d="M74.6279 35.14C72.9346 35.14 71.5346 34.7467 70.4279 33.96C69.3346 33.16 68.7412 31.9933 68.6479 30.46H73.3679C73.4346 31.2733 73.7946 31.68 74.4479 31.68C74.6879 31.68 74.8879 31.6267 75.0479 31.52C75.2212 31.4 75.3079 31.22 75.3079 30.98C75.3079 30.6467 75.1279 30.38 74.7679 30.18C74.4079 29.9667 73.8479 29.7267 73.0879 29.46C72.1812 29.14 71.4279 28.8267 70.8279 28.52C70.2412 28.2133 69.7346 27.7667 69.3079 27.18C68.8812 26.5933 68.6746 25.84 68.6879 24.92C68.6879 24 68.9212 23.22 69.3879 22.58C69.8679 21.9267 70.5146 21.4333 71.3279 21.1C72.1546 20.7667 73.0812 20.6 74.1079 20.6C75.8412 20.6 77.2146 21 78.2279 21.8C79.2546 22.6 79.7946 23.7267 79.8479 25.18H75.0679C75.0546 24.78 74.9546 24.4933 74.7679 24.32C74.5812 24.1467 74.3546 24.06 74.0879 24.06C73.9012 24.06 73.7479 24.1267 73.6279 24.26C73.5079 24.38 73.4479 24.5533 73.4479 24.78C73.4479 25.1 73.6212 25.3667 73.9679 25.58C74.3279 25.78 74.8946 26.0267 75.6679 26.32C76.5612 26.6533 77.2946 26.9733 77.8679 27.28C78.4546 27.5867 78.9612 28.0133 79.3879 28.56C79.8146 29.1067 80.0279 29.7933 80.0279 30.62C80.0279 31.4867 79.8146 32.2667 79.3879 32.96C78.9612 33.64 78.3412 34.1733 77.5279 34.56C76.7146 34.9467 75.7479 35.14 74.6279 35.14ZM81.1879 27.9C81.1879 26.5 81.4679 25.2533 82.0279 24.16C82.6012 23.0667 83.4146 22.22 84.4679 21.62C85.5212 21.0067 86.7612 20.7 88.1879 20.7C89.4146 20.7 90.5079 20.9333 91.4679 21.4C92.4412 21.8533 93.2279 22.5 93.8279 23.34C94.4412 24.18 94.8479 25.16 95.0479 26.28H90.3679C90.1546 25.8133 89.8479 25.4533 89.4479 25.2C89.0612 24.9333 88.6146 24.8 88.1079 24.8C87.3612 24.8 86.7679 25.08 86.3279 25.64C85.9012 26.2 85.6879 26.9533 85.6879 27.9C85.6879 28.8467 85.9012 29.6 86.3279 30.16C86.7679 30.72 87.3612 31 88.1079 31C88.6146 31 89.0612 30.8733 89.4479 30.62C89.8479 30.3533 90.1546 29.9867 90.3679 29.52H95.0479C94.8479 30.64 94.4412 31.62 93.8279 32.46C93.2279 33.3 92.4412 33.9533 91.4679 34.42C90.5079 34.8733 89.4146 35.1 88.1879 35.1C86.7612 35.1 85.5212 34.8 84.4679 34.2C83.4146 33.5867 82.6012 32.7333 82.0279 31.64C81.4679 30.5467 81.1879 29.3 81.1879 27.9ZM103.546 35.14C102.213 35.14 100.986 34.8267 99.8665 34.2C98.7598 33.5733 97.8798 32.7067 97.2265 31.6C96.5732 30.4933 96.2465 29.2467 96.2465 27.86C96.2465 26.4733 96.5732 25.2267 97.2265 24.12C97.8798 23.0133 98.7598 22.1533 99.8665 21.54C100.986 20.9133 102.213 20.6 103.546 20.6C104.88 20.6 106.1 20.9133 107.206 21.54C108.313 22.1533 109.186 23.0133 109.826 24.12C110.48 25.2267 110.806 26.4733 110.806 27.86C110.806 29.2467 110.48 30.4933 109.826 31.6C109.186 32.7067 108.306 33.5733 107.186 34.2C106.08 34.8267 104.866 35.14 103.546 35.14ZM103.546 31C104.426 31 105.106 30.72 105.586 30.16C106.066 29.5867 106.306 28.82 106.306 27.86C106.306 26.8867 106.066 26.12 105.586 25.56C105.106 24.9867 104.426 24.7 103.546 24.7C102.653 24.7 101.966 24.9867 101.486 25.56C101.006 26.12 100.766 26.8867 100.766 27.86C100.766 28.82 101.006 29.5867 101.486 30.16C101.966 30.72 102.653 31 103.546 31ZM119.308 35.14C117.975 35.14 116.748 34.8267 115.628 34.2C114.522 33.5733 113.642 32.7067 112.988 31.6C112.335 30.4933 112.008 29.2467 112.008 27.86C112.008 26.4733 112.335 25.2267 112.988 24.12C113.642 23.0133 114.522 22.1533 115.628 21.54C116.748 20.9133 117.975 20.6 119.308 20.6C120.642 20.6 121.862 20.9133 122.968 21.54C124.075 22.1533 124.948 23.0133 125.588 24.12C126.242 25.2267 126.568 26.4733 126.568 27.86C126.568 29.2467 126.242 30.4933 125.588 31.6C124.948 32.7067 124.068 33.5733 122.948 34.2C121.842 34.8267 120.628 35.14 119.308 35.14ZM119.308 31C120.188 31 120.868 30.72 121.348 30.16C121.828 29.5867 122.068 28.82 122.068 27.86C122.068 26.8867 121.828 26.12 121.348 25.56C120.868 24.9867 120.188 24.7 119.308 24.7C118.415 24.7 117.728 24.9867 117.248 25.56C116.768 26.12 116.528 26.8867 116.528 27.86C116.528 28.82 116.768 29.5867 117.248 30.16C117.728 30.72 118.415 31 119.308 31ZM139.75 25.7C139.75 26.5933 139.543 27.4067 139.13 28.14C138.717 28.86 138.103 29.4333 137.29 29.86C136.49 30.2867 135.517 30.5 134.37 30.5H132.61V35H128.17V20.84H134.37C136.103 20.84 137.43 21.28 138.35 22.16C139.283 23.04 139.75 24.22 139.75 25.7ZM133.87 27C134.79 27 135.25 26.5667 135.25 25.7C135.25 24.8333 134.79 24.4 133.87 24.4H132.61V27H133.87ZM146.698 35.14C145.005 35.14 143.605 34.7467 142.498 33.96C141.405 33.16 140.812 31.9933 140.718 30.46H145.438C145.505 31.2733 145.865 31.68 146.518 31.68C146.758 31.68 146.958 31.6267 147.118 31.52C147.292 31.4 147.378 31.22 147.378 30.98C147.378 30.6467 147.198 30.38 146.838 30.18C146.478 29.9667 145.918 29.7267 145.158 29.46C144.252 29.14 143.498 28.8267 142.898 28.52C142.312 28.2133 141.805 27.7667 141.378 27.18C140.952 26.5933 140.745 25.84 140.758 24.92C140.758 24 140.992 23.22 141.458 22.58C141.938 21.9267 142.585 21.4333 143.398 21.1C144.225 20.7667 145.152 20.6 146.178 20.6C147.912 20.6 149.285 21 150.298 21.8C151.325 22.6 151.865 23.7267 151.918 25.18H147.138C147.125 24.78 147.025 24.4933 146.838 24.32C146.652 24.1467 146.425 24.06 146.158 24.06C145.972 24.06 145.818 24.1267 145.698 24.26C145.578 24.38 145.518 24.5533 145.518 24.78C145.518 25.1 145.692 25.3667 146.038 25.58C146.398 25.78 146.965 26.0267 147.738 26.32C148.632 26.6533 149.365 26.9733 149.938 27.28C150.525 27.5867 151.032 28.0133 151.458 28.56C151.885 29.1067 152.098 29.7933 152.098 30.62C152.098 31.4867 151.885 32.2667 151.458 32.96C151.032 33.64 150.412 34.1733 149.598 34.56C148.785 34.9467 147.818 35.14 146.698 35.14ZM157.097 32.8V29.1L163.057 20.6H167.837V28.96H169.277V32.8H167.837V35H163.357V32.8H157.097ZM163.717 25.66L161.557 28.96H163.717V25.66ZM178.877 20.84V28.82C178.877 29.4733 179.017 29.9933 179.297 30.38C179.59 30.7533 180.057 30.94 180.697 30.94C181.337 30.94 181.81 30.7533 182.117 30.38C182.424 29.9933 182.577 29.4733 182.577 28.82V20.84H186.997V28.82C186.997 30.1667 186.717 31.32 186.157 32.28C185.597 33.2267 184.83 33.94 183.857 34.42C182.884 34.9 181.797 35.14 180.597 35.14C179.397 35.14 178.33 34.9 177.397 34.42C176.477 33.94 175.757 33.2267 175.237 32.28C174.717 31.3333 174.457 30.18 174.457 28.82V20.84H178.877Z" fill="#001BDE"/>
</svg>
