<svg width="55" height="53" viewBox="0 0 55 53" fill="none" xmlns="http://www.w3.org/2000/svg">
<path d="M52.5 26.349C52.5 39.4207 41.4089 50.1979 27.5 50.1979C13.5911 50.1979 2.5 39.4207 2.5 26.349C2.5 13.2772 13.5911 2.5 27.5 2.5C41.4089 2.5 52.5 13.2772 52.5 26.349Z" fill="white" stroke="#001BDE" stroke-width="5"/>
<path d="M16.8703 23.0581C18.7333 23.0581 20.2435 21.5759 20.2435 19.7474C20.2435 17.919 18.7333 16.4368 16.8703 16.4368C15.0073 16.4368 13.4971 17.919 13.4971 19.7474C13.4971 21.5759 15.0073 23.0581 16.8703 23.0581Z" fill="#001BDE"/>
<path d="M34.4426 19.8244C36.3055 19.8244 37.8158 18.3422 37.8158 16.5138C37.8158 14.6854 36.3055 13.2031 34.4426 13.2031C32.5796 13.2031 31.0693 14.6854 31.0693 16.5138C31.0693 18.3422 32.5796 19.8244 34.4426 19.8244Z" fill="#001BDE"/>
<path d="M40.4669 23.0581C42.393 29.8588 38.3033 36.9136 31.3322 38.8153C24.3612 40.717 17.1487 36.7455 15.2227 29.9449" stroke="#001BDE" stroke-width="5" stroke-linecap="round"/>
</svg>
