<svg width="119" height="16" viewBox="0 0 119 16" fill="none" xmlns="http://www.w3.org/2000/svg">
<path d="M6.62789 15.14C4.93456 15.14 3.53456 14.7467 2.42789 13.96C1.33456 13.16 0.741224 11.9933 0.647891 10.46H5.36789C5.43456 11.2733 5.79456 11.68 6.44789 11.68C6.68789 11.68 6.88789 11.6267 7.04789 11.52C7.22122 11.4 7.30789 11.22 7.30789 10.98C7.30789 10.6467 7.12789 10.38 6.76789 10.18C6.40789 9.96667 5.84789 9.72667 5.08789 9.46C4.18122 9.14 3.42789 8.82667 2.82789 8.52C2.24122 8.21333 1.73456 7.76667 1.30789 7.18C0.881224 6.59333 0.674557 5.84 0.687891 4.92C0.687891 4 0.921224 3.22 1.38789 2.58C1.86789 1.92667 2.51456 1.43333 3.32789 1.1C4.15456 0.766666 5.08122 0.599999 6.10789 0.599999C7.84122 0.599999 9.21456 0.999999 10.2279 1.8C11.2546 2.6 11.7946 3.72667 11.8479 5.18H7.06789C7.05456 4.78 6.95456 4.49333 6.76789 4.32C6.58122 4.14667 6.35456 4.06 6.08789 4.06C5.90122 4.06 5.74789 4.12667 5.62789 4.26C5.50789 4.38 5.44789 4.55333 5.44789 4.78C5.44789 5.1 5.62122 5.36667 5.96789 5.58C6.32789 5.78 6.89456 6.02667 7.66789 6.32C8.56122 6.65333 9.29456 6.97333 9.86789 7.28C10.4546 7.58667 10.9612 8.01333 11.3879 8.56C11.8146 9.10667 12.0279 9.79333 12.0279 10.62C12.0279 11.4867 11.8146 12.2667 11.3879 12.96C10.9612 13.64 10.3412 14.1733 9.52789 14.56C8.71456 14.9467 7.74789 15.14 6.62789 15.14ZM13.1879 7.9C13.1879 6.5 13.4679 5.25333 14.0279 4.16C14.6012 3.06667 15.4146 2.22 16.4679 1.62C17.5212 1.00667 18.7612 0.699999 20.1879 0.699999C21.4146 0.699999 22.5079 0.933333 23.4679 1.4C24.4412 1.85333 25.2279 2.5 25.8279 3.34C26.4412 4.18 26.8479 5.16 27.0479 6.28H22.3679C22.1546 5.81333 21.8479 5.45333 21.4479 5.2C21.0612 4.93333 20.6146 4.8 20.1079 4.8C19.3612 4.8 18.7679 5.08 18.3279 5.64C17.9012 6.2 17.6879 6.95333 17.6879 7.9C17.6879 8.84667 17.9012 9.6 18.3279 10.16C18.7679 10.72 19.3612 11 20.1079 11C20.6146 11 21.0612 10.8733 21.4479 10.62C21.8479 10.3533 22.1546 9.98667 22.3679 9.52H27.0479C26.8479 10.64 26.4412 11.62 25.8279 12.46C25.2279 13.3 24.4412 13.9533 23.4679 14.42C22.5079 14.8733 21.4146 15.1 20.1879 15.1C18.7612 15.1 17.5212 14.8 16.4679 14.2C15.4146 13.5867 14.6012 12.7333 14.0279 11.64C13.4679 10.5467 13.1879 9.3 13.1879 7.9ZM35.5465 15.14C34.2132 15.14 32.9865 14.8267 31.8665 14.2C30.7598 13.5733 29.8798 12.7067 29.2265 11.6C28.5732 10.4933 28.2465 9.24667 28.2465 7.86C28.2465 6.47333 28.5732 5.22667 29.2265 4.12C29.8798 3.01333 30.7598 2.15333 31.8665 1.54C32.9865 0.913333 34.2132 0.599999 35.5465 0.599999C36.8798 0.599999 38.0998 0.913333 39.2065 1.54C40.3132 2.15333 41.1865 3.01333 41.8265 4.12C42.4798 5.22667 42.8065 6.47333 42.8065 7.86C42.8065 9.24667 42.4798 10.4933 41.8265 11.6C41.1865 12.7067 40.3065 13.5733 39.1865 14.2C38.0798 14.8267 36.8665 15.14 35.5465 15.14ZM35.5465 11C36.4265 11 37.1065 10.72 37.5865 10.16C38.0665 9.58667 38.3065 8.82 38.3065 7.86C38.3065 6.88667 38.0665 6.12 37.5865 5.56C37.1065 4.98667 36.4265 4.7 35.5465 4.7C34.6532 4.7 33.9665 4.98667 33.4865 5.56C33.0065 6.12 32.7665 6.88667 32.7665 7.86C32.7665 8.82 33.0065 9.58667 33.4865 10.16C33.9665 10.72 34.6532 11 35.5465 11ZM51.3082 15.14C49.9749 15.14 48.7482 14.8267 47.6282 14.2C46.5215 13.5733 45.6415 12.7067 44.9882 11.6C44.3349 10.4933 44.0082 9.24667 44.0082 7.86C44.0082 6.47333 44.3349 5.22667 44.9882 4.12C45.6415 3.01333 46.5215 2.15333 47.6282 1.54C48.7482 0.913333 49.9749 0.599999 51.3082 0.599999C52.6415 0.599999 53.8615 0.913333 54.9682 1.54C56.0749 2.15333 56.9482 3.01333 57.5882 4.12C58.2415 5.22667 58.5682 6.47333 58.5682 7.86C58.5682 9.24667 58.2415 10.4933 57.5882 11.6C56.9482 12.7067 56.0682 13.5733 54.9482 14.2C53.8415 14.8267 52.6282 15.14 51.3082 15.14ZM51.3082 11C52.1882 11 52.8682 10.72 53.3482 10.16C53.8282 9.58667 54.0682 8.82 54.0682 7.86C54.0682 6.88667 53.8282 6.12 53.3482 5.56C52.8682 4.98667 52.1882 4.7 51.3082 4.7C50.4149 4.7 49.7282 4.98667 49.2482 5.56C48.7682 6.12 48.5282 6.88667 48.5282 7.86C48.5282 8.82 48.7682 9.58667 49.2482 10.16C49.7282 10.72 50.4149 11 51.3082 11ZM71.7499 5.7C71.7499 6.59333 71.5433 7.40667 71.1299 8.14C70.7166 8.86 70.1033 9.43333 69.2899 9.86C68.4899 10.2867 67.5166 10.5 66.3699 10.5H64.6099V15H60.1699V0.84H66.3699C68.1033 0.84 69.4299 1.28 70.3499 2.16C71.2833 3.04 71.7499 4.22 71.7499 5.7ZM65.8699 7C66.7899 7 67.2499 6.56667 67.2499 5.7C67.2499 4.83333 66.7899 4.4 65.8699 4.4H64.6099V7H65.8699ZM78.6982 15.14C77.0049 15.14 75.6049 14.7467 74.4982 13.96C73.4049 13.16 72.8115 11.9933 72.7182 10.46H77.4382C77.5049 11.2733 77.8649 11.68 78.5182 11.68C78.7582 11.68 78.9582 11.6267 79.1182 11.52C79.2915 11.4 79.3782 11.22 79.3782 10.98C79.3782 10.6467 79.1982 10.38 78.8382 10.18C78.4782 9.96667 77.9182 9.72667 77.1582 9.46C76.2515 9.14 75.4982 8.82667 74.8982 8.52C74.3115 8.21333 73.8049 7.76667 73.3782 7.18C72.9515 6.59333 72.7449 5.84 72.7582 4.92C72.7582 4 72.9915 3.22 73.4582 2.58C73.9382 1.92667 74.5849 1.43333 75.3982 1.1C76.2249 0.766666 77.1515 0.599999 78.1782 0.599999C79.9115 0.599999 81.2849 0.999999 82.2982 1.8C83.3249 2.6 83.8649 3.72667 83.9182 5.18H79.1382C79.1249 4.78 79.0249 4.49333 78.8382 4.32C78.6515 4.14667 78.4249 4.06 78.1582 4.06C77.9715 4.06 77.8182 4.12667 77.6982 4.26C77.5782 4.38 77.5182 4.55333 77.5182 4.78C77.5182 5.1 77.6915 5.36667 78.0382 5.58C78.3982 5.78 78.9649 6.02667 79.7382 6.32C80.6315 6.65333 81.3649 6.97333 81.9382 7.28C82.5249 7.58667 83.0315 8.01333 83.4582 8.56C83.8849 9.10667 84.0982 9.79333 84.0982 10.62C84.0982 11.4867 83.8849 12.2667 83.4582 12.96C83.0315 13.64 82.4115 14.1733 81.5982 14.56C80.7849 14.9467 79.8182 15.14 78.6982 15.14ZM89.0966 12.8V9.1L95.0566 0.599999H99.8366V8.96H101.277V12.8H99.8366V15H95.3566V12.8H89.0966ZM95.7166 5.66L93.5566 8.96H95.7166V5.66ZM110.877 0.84V8.82C110.877 9.47333 111.017 9.99333 111.297 10.38C111.59 10.7533 112.057 10.94 112.697 10.94C113.337 10.94 113.81 10.7533 114.117 10.38C114.424 9.99333 114.577 9.47333 114.577 8.82V0.84H118.997V8.82C118.997 10.1667 118.717 11.32 118.157 12.28C117.597 13.2267 116.83 13.94 115.857 14.42C114.884 14.9 113.797 15.14 112.597 15.14C111.397 15.14 110.33 14.9 109.397 14.42C108.477 13.94 107.757 13.2267 107.237 12.28C106.717 11.3333 106.457 10.18 106.457 8.82V0.84H110.877Z" fill="#001BDE"/>
</svg>
