<svg width="60" height="60" viewBox="0 0 60 60" fill="none" xmlns="http://www.w3.org/2000/svg">
<circle cx="29.6938" cy="29.6938" r="27.1938" fill="white" stroke="#001BDE" stroke-width="5"/>
<path d="M18.2161 25.9854C20.2277 25.9854 21.8584 24.315 21.8584 22.2545C21.8584 20.194 20.2277 18.5236 18.2161 18.5236C16.2045 18.5236 14.5737 20.194 14.5737 22.2545C14.5737 24.315 16.2045 25.9854 18.2161 25.9854Z" fill="#001BDE"/>
<path d="M37.1902 22.3411C39.2018 22.3411 40.8325 20.6707 40.8325 18.6102C40.8325 16.5497 39.2018 14.8793 37.1902 14.8793C35.1786 14.8793 33.5479 16.5497 33.5479 18.6102C33.5479 20.6707 35.1786 22.3411 37.1902 22.3411Z" fill="#001BDE"/>
<path d="M43.6956 25.9855C45.7754 33.6495 41.3594 41.5999 33.8322 43.7429C26.3051 45.8861 18.5172 41.4104 16.4375 33.7465" stroke="#001BDE" stroke-width="5" stroke-linecap="round"/>
</svg>
