<svg width="90" height="23" viewBox="0 0 90 23" fill="none" xmlns="http://www.w3.org/2000/svg">
<path d="M4.97092 17.105C3.70092 17.105 2.65092 16.81 1.82092 16.22C1.00092 15.62 0.555918 14.745 0.485918 13.595H4.02592C4.07592 14.205 4.34592 14.51 4.83592 14.51C5.01592 14.51 5.16592 14.47 5.28592 14.39C5.41592 14.3 5.48092 14.165 5.48092 13.985C5.48092 13.735 5.34592 13.535 5.07592 13.385C4.80592 13.225 4.38592 13.045 3.81592 12.845C3.13592 12.605 2.57092 12.37 2.12092 12.14C1.68092 11.91 1.30092 11.575 0.980918 11.135C0.660918 10.695 0.505918 10.13 0.515918 9.44C0.515918 8.75 0.690918 8.165 1.04092 7.685C1.40092 7.195 1.88592 6.825 2.49592 6.575C3.11592 6.325 3.81092 6.2 4.58092 6.2C5.88092 6.2 6.91092 6.5 7.67092 7.1C8.44092 7.7 8.84592 8.545 8.88592 9.635H5.30092C5.29092 9.335 5.21592 9.12 5.07592 8.99C4.93592 8.86 4.76592 8.795 4.56592 8.795C4.42592 8.795 4.31092 8.845 4.22092 8.945C4.13092 9.035 4.08592 9.165 4.08592 9.335C4.08592 9.575 4.21592 9.775 4.47592 9.935C4.74592 10.085 5.17092 10.27 5.75092 10.49C6.42092 10.74 6.97092 10.98 7.40092 11.21C7.84092 11.44 8.22092 11.76 8.54092 12.17C8.86092 12.58 9.02092 13.095 9.02092 13.715C9.02092 14.365 8.86092 14.95 8.54092 15.47C8.22092 15.98 7.75592 16.38 7.14592 16.67C6.53592 16.96 5.81092 17.105 4.97092 17.105ZM9.89092 11.675C9.89092 10.625 10.1009 9.69 10.5209 8.87C10.9509 8.05 11.5609 7.415 12.3509 6.965C13.1409 6.505 14.0709 6.275 15.1409 6.275C16.0609 6.275 16.8809 6.45 17.6009 6.8C18.3309 7.14 18.9209 7.625 19.3709 8.255C19.8309 8.885 20.1359 9.62 20.2859 10.46H16.7759C16.6159 10.11 16.3859 9.84 16.0859 9.65C15.7959 9.45 15.4609 9.35 15.0809 9.35C14.5209 9.35 14.0759 9.56 13.7459 9.98C13.4259 10.4 13.2659 10.965 13.2659 11.675C13.2659 12.385 13.4259 12.95 13.7459 13.37C14.0759 13.79 14.5209 14 15.0809 14C15.4609 14 15.7959 13.905 16.0859 13.715C16.3859 13.515 16.6159 13.24 16.7759 12.89H20.2859C20.1359 13.73 19.8309 14.465 19.3709 15.095C18.9209 15.725 18.3309 16.215 17.6009 16.565C16.8809 16.905 16.0609 17.075 15.1409 17.075C14.0709 17.075 13.1409 16.85 12.3509 16.4C11.5609 15.94 10.9509 15.3 10.5209 14.48C10.1009 13.66 9.89092 12.725 9.89092 11.675ZM26.6599 17.105C25.6599 17.105 24.7399 16.87 23.8999 16.4C23.0699 15.93 22.4099 15.28 21.9199 14.45C21.4299 13.62 21.1849 12.685 21.1849 11.645C21.1849 10.605 21.4299 9.67 21.9199 8.84C22.4099 8.01 23.0699 7.365 23.8999 6.905C24.7399 6.435 25.6599 6.2 26.6599 6.2C27.6599 6.2 28.5749 6.435 29.4049 6.905C30.2349 7.365 30.8899 8.01 31.3699 8.84C31.8599 9.67 32.1049 10.605 32.1049 11.645C32.1049 12.685 31.8599 13.62 31.3699 14.45C30.8899 15.28 30.2299 15.93 29.3899 16.4C28.5599 16.87 27.6499 17.105 26.6599 17.105ZM26.6599 14C27.3199 14 27.8299 13.79 28.1899 13.37C28.5499 12.94 28.7299 12.365 28.7299 11.645C28.7299 10.915 28.5499 10.34 28.1899 9.92C27.8299 9.49 27.3199 9.275 26.6599 9.275C25.9899 9.275 25.4749 9.49 25.1149 9.92C24.7549 10.34 24.5749 10.915 24.5749 11.645C24.5749 12.365 24.7549 12.94 25.1149 13.37C25.4749 13.79 25.9899 14 26.6599 14ZM38.4812 17.105C37.4812 17.105 36.5612 16.87 35.7212 16.4C34.8912 15.93 34.2312 15.28 33.7412 14.45C33.2512 13.62 33.0062 12.685 33.0062 11.645C33.0062 10.605 33.2512 9.67 33.7412 8.84C34.2312 8.01 34.8912 7.365 35.7212 6.905C36.5612 6.435 37.4812 6.2 38.4812 6.2C39.4812 6.2 40.3962 6.435 41.2262 6.905C42.0562 7.365 42.7112 8.01 43.1912 8.84C43.6812 9.67 43.9262 10.605 43.9262 11.645C43.9262 12.685 43.6812 13.62 43.1912 14.45C42.7112 15.28 42.0512 15.93 41.2112 16.4C40.3812 16.87 39.4712 17.105 38.4812 17.105ZM38.4812 14C39.1412 14 39.6512 13.79 40.0112 13.37C40.3712 12.94 40.5512 12.365 40.5512 11.645C40.5512 10.915 40.3712 10.34 40.0112 9.92C39.6512 9.49 39.1412 9.275 38.4812 9.275C37.8112 9.275 37.2962 9.49 36.9362 9.92C36.5762 10.34 36.3962 10.915 36.3962 11.645C36.3962 12.365 36.5762 12.94 36.9362 13.37C37.2962 13.79 37.8112 14 38.4812 14ZM53.8124 10.025C53.8124 10.695 53.6574 11.305 53.3474 11.855C53.0374 12.395 52.5774 12.825 51.9674 13.145C51.3674 13.465 50.6374 13.625 49.7774 13.625H48.4574V17H45.1274V6.38H49.7774C51.0774 6.38 52.0724 6.71 52.7624 7.37C53.4624 8.03 53.8124 8.915 53.8124 10.025ZM49.4024 11C50.0924 11 50.4374 10.675 50.4374 10.025C50.4374 9.375 50.0924 9.05 49.4024 9.05H48.4574V11H49.4024ZM59.0237 17.105C57.7537 17.105 56.7037 16.81 55.8737 16.22C55.0537 15.62 54.6087 14.745 54.5387 13.595H58.0787C58.1287 14.205 58.3987 14.51 58.8887 14.51C59.0687 14.51 59.2187 14.47 59.3387 14.39C59.4687 14.3 59.5337 14.165 59.5337 13.985C59.5337 13.735 59.3987 13.535 59.1287 13.385C58.8587 13.225 58.4387 13.045 57.8687 12.845C57.1887 12.605 56.6237 12.37 56.1737 12.14C55.7337 11.91 55.3537 11.575 55.0337 11.135C54.7137 10.695 54.5587 10.13 54.5687 9.44C54.5687 8.75 54.7437 8.165 55.0937 7.685C55.4537 7.195 55.9387 6.825 56.5487 6.575C57.1687 6.325 57.8637 6.2 58.6337 6.2C59.9337 6.2 60.9637 6.5 61.7237 7.1C62.4937 7.7 62.8987 8.545 62.9387 9.635H59.3537C59.3437 9.335 59.2687 9.12 59.1287 8.99C58.9887 8.86 58.8187 8.795 58.6187 8.795C58.4787 8.795 58.3637 8.845 58.2737 8.945C58.1837 9.035 58.1387 9.165 58.1387 9.335C58.1387 9.575 58.2687 9.775 58.5287 9.935C58.7987 10.085 59.2237 10.27 59.8037 10.49C60.4737 10.74 61.0237 10.98 61.4537 11.21C61.8937 11.44 62.2737 11.76 62.5937 12.17C62.9137 12.58 63.0737 13.095 63.0737 13.715C63.0737 14.365 62.9137 14.95 62.5937 15.47C62.2737 15.98 61.8087 16.38 61.1987 16.67C60.5887 16.96 59.8637 17.105 59.0237 17.105ZM66.8225 15.35V12.575L71.2925 6.2H74.8775V12.47H75.9575V15.35H74.8775V17H71.5175V15.35H66.8225ZM71.7875 9.995L70.1675 12.47H71.7875V9.995ZM83.1578 6.38V12.365C83.1578 12.855 83.2628 13.245 83.4728 13.535C83.6928 13.815 84.0428 13.955 84.5228 13.955C85.0028 13.955 85.3578 13.815 85.5878 13.535C85.8178 13.245 85.9328 12.855 85.9328 12.365V6.38H89.2478V12.365C89.2478 13.375 89.0378 14.24 88.6178 14.96C88.1978 15.67 87.6228 16.205 86.8928 16.565C86.1628 16.925 85.3478 17.105 84.4478 17.105C83.5478 17.105 82.7478 16.925 82.0478 16.565C81.3578 16.205 80.8178 15.67 80.4278 14.96C80.0378 14.25 79.8428 13.385 79.8428 12.365V6.38H83.1578Z" fill="white"/>
</svg>
