<svg width="51" height="50" viewBox="0 0 51 50" fill="none" xmlns="http://www.w3.org/2000/svg">
<g clip-path="url(#clip0_408_3195)">
<circle cx="14" cy="15" r="6" fill="white"/>
<circle cx="36" cy="15" r="6" fill="white"/>
<circle cx="36" cy="35" r="6" fill="white"/>
<circle cx="15" cy="35" r="6" fill="white"/>
<path d="M13.792 23.9583C12.5608 23.9583 11.3418 23.7158 10.2043 23.2447C9.06691 22.7735 8.03342 22.083 7.16287 21.2124C6.29232 20.3419 5.60176 19.3084 5.13062 18.171C4.65948 17.0335 4.41699 15.8145 4.41699 14.5833C4.41699 13.3522 4.65948 12.1331 5.13062 10.9957C5.60176 9.85823 6.29232 8.82474 7.16287 7.95419C8.03342 7.08364 9.06691 6.39308 10.2043 5.92194C11.3418 5.4508 12.5608 5.20831 13.792 5.20831C16.2784 5.20831 18.663 6.19603 20.4211 7.95419C22.1793 9.71234 23.167 12.0969 23.167 14.5833C23.167 17.0697 22.1793 19.4543 20.4211 21.2124C18.663 22.9706 16.2784 23.9583 13.792 23.9583ZM14.8337 44.7916C12.3473 44.7916 9.96269 43.8039 8.20453 42.0458C6.44638 40.2876 5.45866 37.903 5.45866 35.4166C5.45866 32.9302 6.44638 30.5457 8.20453 28.7875C9.96269 27.0294 12.3473 26.0416 14.8337 26.0416C17.3201 26.0416 19.7046 27.0294 21.4628 28.7875C23.2209 30.5457 24.2087 32.9302 24.2087 35.4166C24.2087 37.903 23.2209 40.2876 21.4628 42.0458C19.7046 43.8039 17.3201 44.7916 14.8337 44.7916ZM35.667 23.9583C34.4358 23.9583 33.2168 23.7158 32.0793 23.2447C30.9419 22.7735 29.9084 22.083 29.0379 21.2124C28.1673 20.3419 27.4768 19.3084 27.0056 18.171C26.5345 17.0335 26.292 15.8145 26.292 14.5833C26.292 13.3522 26.5345 12.1331 27.0056 10.9957C27.4768 9.85823 28.1673 8.82474 29.0379 7.95419C29.9084 7.08364 30.9419 6.39308 32.0793 5.92194C33.2168 5.4508 34.4358 5.20831 35.667 5.20831C38.1534 5.20831 40.538 6.19603 42.2961 7.95419C44.0543 9.71234 45.042 12.0969 45.042 14.5833C45.042 17.0697 44.0543 19.4543 42.2961 21.2124C40.538 22.9706 38.1534 23.9583 35.667 23.9583ZM35.667 44.7916C33.1806 44.7916 30.796 43.8039 29.0379 42.0458C27.2797 40.2876 26.292 37.903 26.292 35.4166C26.292 32.9302 27.2797 30.5457 29.0379 28.7875C30.796 27.0294 33.1806 26.0416 35.667 26.0416C38.1534 26.0416 40.538 27.0294 42.2961 28.7875C44.0543 30.5457 45.042 32.9302 45.042 35.4166C45.042 37.903 44.0543 40.2876 42.2961 42.0458C40.538 43.8039 38.1534 44.7916 35.667 44.7916ZM13.792 19.7916C15.1733 19.7916 16.4981 19.2429 17.4748 18.2662C18.4516 17.2894 19.0003 15.9646 19.0003 14.5833C19.0003 13.202 18.4516 11.8772 17.4748 10.9005C16.4981 9.92371 15.1733 9.37498 13.792 9.37498C12.4107 9.37498 11.0859 9.92371 10.1091 10.9005C9.13239 11.8772 8.58366 13.202 8.58366 14.5833C8.58366 15.9646 9.13239 17.2894 10.1091 18.2662C11.0859 19.2429 12.4107 19.7916 13.792 19.7916ZM14.8337 40.625C16.215 40.625 17.5398 40.0762 18.5165 39.0995C19.4933 38.1227 20.042 36.798 20.042 35.4166C20.042 34.0353 19.4933 32.7106 18.5165 31.7338C17.5398 30.757 16.215 30.2083 14.8337 30.2083C13.4523 30.2083 12.1276 30.757 11.1508 31.7338C10.1741 32.7106 9.62533 34.0353 9.62533 35.4166C9.62533 36.798 10.1741 38.1227 11.1508 39.0995C12.1276 40.0762 13.4523 40.625 14.8337 40.625ZM35.667 19.7916C37.0483 19.7916 38.3731 19.2429 39.3498 18.2662C40.3266 17.2894 40.8753 15.9646 40.8753 14.5833C40.8753 13.202 40.3266 11.8772 39.3498 10.9005C38.3731 9.92371 37.0483 9.37498 35.667 9.37498C34.2857 9.37498 32.9609 9.92371 31.9841 10.9005C31.0074 11.8772 30.4587 13.202 30.4587 14.5833C30.4587 15.9646 31.0074 17.2894 31.9841 18.2662C32.9609 19.2429 34.2857 19.7916 35.667 19.7916ZM35.667 40.625C37.0483 40.625 38.3731 40.0762 39.3498 39.0995C40.3266 38.1227 40.8753 36.798 40.8753 35.4166C40.8753 34.0353 40.3266 32.7106 39.3498 31.7338C38.3731 30.757 37.0483 30.2083 35.667 30.2083C34.2857 30.2083 32.9609 30.757 31.9841 31.7338C31.0074 32.7106 30.4587 34.0353 30.4587 35.4166C30.4587 36.798 31.0074 38.1227 31.9841 39.0995C32.9609 40.0762 34.2857 40.625 35.667 40.625Z" fill="#001BDE"/>
</g>
<defs>
<clipPath id="clip0_408_3195">
<rect width="50" height="50" fill="white" transform="translate(0.25)"/>
</clipPath>
</defs>
</svg>
