<svg width="168" height="168" viewBox="0 0 168 168" fill="none" xmlns="http://www.w3.org/2000/svg">
<circle cx="84" cy="84" r="81.5" fill="white" stroke="#001BDE" stroke-width="5"/>
<path d="M51.5312 73.5095C57.2218 73.5095 61.8349 68.7842 61.8349 62.9552C61.8349 57.1262 57.2218 52.4009 51.5312 52.4009C45.8407 52.4009 41.2275 57.1262 41.2275 62.9552C41.2275 68.7842 45.8407 73.5095 51.5312 73.5095Z" fill="#001BDE"/>
<path d="M105.206 63.2002C110.897 63.2002 115.51 58.4749 115.51 52.6459C115.51 46.8169 110.897 42.0916 105.206 42.0916C99.5157 42.0916 94.9026 46.8169 94.9026 52.6459C94.9026 58.4749 99.5157 63.2002 105.206 63.2002Z" fill="#001BDE"/>
<path d="M123.609 73.5095C129.492 95.19 117 117.681 95.7067 123.743C74.4134 129.806 52.3825 117.145 46.4993 95.4643" stroke="#001BDE" stroke-width="10" stroke-linecap="round"/>
</svg>
