<svg width="117" height="99" viewBox="0 0 117 99" fill="none" xmlns="http://www.w3.org/2000/svg">
<circle cx="58.5" cy="32.5" r="30" fill="white" stroke="black" stroke-width="5"/>
<path d="M45.9377 28.4409C48.1394 28.4409 49.9243 26.6127 49.9243 24.3574C49.9243 22.1022 48.1394 20.2739 45.9377 20.2739C43.736 20.2739 41.9512 22.1022 41.9512 24.3574C41.9512 26.6127 43.736 28.4409 45.9377 28.4409Z" fill="black"/>
<path d="M66.7053 24.4523C68.907 24.4523 70.6918 22.6241 70.6918 20.3688C70.6918 18.1135 68.907 16.2853 66.7053 16.2853C64.5036 16.2853 62.7188 18.1135 62.7188 20.3688C62.7188 22.6241 64.5036 24.4523 66.7053 24.4523Z" fill="black"/>
<path d="M73.8263 28.4409C76.1026 36.8292 71.2693 45.5309 63.0308 47.8765C54.7923 50.2222 46.2684 45.3236 43.9922 36.9353" stroke="black" stroke-width="5" stroke-linecap="round"/>
<path d="M18.4703 90.105C17.2003 90.105 16.1503 89.81 15.3203 89.22C14.5003 88.62 14.0553 87.745 13.9853 86.595H17.5253C17.5753 87.205 17.8453 87.51 18.3353 87.51C18.5153 87.51 18.6653 87.47 18.7853 87.39C18.9153 87.3 18.9803 87.165 18.9803 86.985C18.9803 86.735 18.8453 86.535 18.5753 86.385C18.3053 86.225 17.8853 86.045 17.3153 85.845C16.6353 85.605 16.0703 85.37 15.6203 85.14C15.1803 84.91 14.8003 84.575 14.4803 84.135C14.1603 83.695 14.0053 83.13 14.0153 82.44C14.0153 81.75 14.1903 81.165 14.5403 80.685C14.9003 80.195 15.3853 79.825 15.9953 79.575C16.6153 79.325 17.3103 79.2 18.0803 79.2C19.3803 79.2 20.4103 79.5 21.1703 80.1C21.9403 80.7 22.3453 81.545 22.3853 82.635H18.8003C18.7903 82.335 18.7153 82.12 18.5753 81.99C18.4353 81.86 18.2653 81.795 18.0653 81.795C17.9253 81.795 17.8103 81.845 17.7203 81.945C17.6303 82.035 17.5853 82.165 17.5853 82.335C17.5853 82.575 17.7153 82.775 17.9753 82.935C18.2453 83.085 18.6703 83.27 19.2503 83.49C19.9203 83.74 20.4703 83.98 20.9003 84.21C21.3403 84.44 21.7203 84.76 22.0403 85.17C22.3603 85.58 22.5203 86.095 22.5203 86.715C22.5203 87.365 22.3603 87.95 22.0403 88.47C21.7203 88.98 21.2553 89.38 20.6453 89.67C20.0353 89.96 19.3103 90.105 18.4703 90.105ZM23.3903 84.675C23.3903 83.625 23.6003 82.69 24.0203 81.87C24.4503 81.05 25.0603 80.415 25.8503 79.965C26.6403 79.505 27.5703 79.275 28.6403 79.275C29.5603 79.275 30.3803 79.45 31.1003 79.8C31.8303 80.14 32.4203 80.625 32.8703 81.255C33.3303 81.885 33.6353 82.62 33.7853 83.46H30.2753C30.1153 83.11 29.8853 82.84 29.5853 82.65C29.2953 82.45 28.9603 82.35 28.5803 82.35C28.0203 82.35 27.5753 82.56 27.2453 82.98C26.9253 83.4 26.7653 83.965 26.7653 84.675C26.7653 85.385 26.9253 85.95 27.2453 86.37C27.5753 86.79 28.0203 87 28.5803 87C28.9603 87 29.2953 86.905 29.5853 86.715C29.8853 86.515 30.1153 86.24 30.2753 85.89H33.7853C33.6353 86.73 33.3303 87.465 32.8703 88.095C32.4203 88.725 31.8303 89.215 31.1003 89.565C30.3803 89.905 29.5603 90.075 28.6403 90.075C27.5703 90.075 26.6403 89.85 25.8503 89.4C25.0603 88.94 24.4503 88.3 24.0203 87.48C23.6003 86.66 23.3903 85.725 23.3903 84.675ZM40.1593 90.105C39.1593 90.105 38.2393 89.87 37.3993 89.4C36.5693 88.93 35.9093 88.28 35.4193 87.45C34.9293 86.62 34.6843 85.685 34.6843 84.645C34.6843 83.605 34.9293 82.67 35.4193 81.84C35.9093 81.01 36.5693 80.365 37.3993 79.905C38.2393 79.435 39.1593 79.2 40.1593 79.2C41.1593 79.2 42.0743 79.435 42.9043 79.905C43.7343 80.365 44.3893 81.01 44.8693 81.84C45.3593 82.67 45.6043 83.605 45.6043 84.645C45.6043 85.685 45.3593 86.62 44.8693 87.45C44.3893 88.28 43.7293 88.93 42.8893 89.4C42.0593 89.87 41.1493 90.105 40.1593 90.105ZM40.1593 87C40.8193 87 41.3293 86.79 41.6893 86.37C42.0493 85.94 42.2293 85.365 42.2293 84.645C42.2293 83.915 42.0493 83.34 41.6893 82.92C41.3293 82.49 40.8193 82.275 40.1593 82.275C39.4893 82.275 38.9743 82.49 38.6143 82.92C38.2543 83.34 38.0743 83.915 38.0743 84.645C38.0743 85.365 38.2543 85.94 38.6143 86.37C38.9743 86.79 39.4893 87 40.1593 87ZM51.9805 90.105C50.9805 90.105 50.0605 89.87 49.2205 89.4C48.3905 88.93 47.7305 88.28 47.2405 87.45C46.7505 86.62 46.5055 85.685 46.5055 84.645C46.5055 83.605 46.7505 82.67 47.2405 81.84C47.7305 81.01 48.3905 80.365 49.2205 79.905C50.0605 79.435 50.9805 79.2 51.9805 79.2C52.9805 79.2 53.8955 79.435 54.7255 79.905C55.5555 80.365 56.2105 81.01 56.6905 81.84C57.1805 82.67 57.4255 83.605 57.4255 84.645C57.4255 85.685 57.1805 86.62 56.6905 87.45C56.2105 88.28 55.5505 88.93 54.7105 89.4C53.8805 89.87 52.9705 90.105 51.9805 90.105ZM51.9805 87C52.6405 87 53.1505 86.79 53.5105 86.37C53.8705 85.94 54.0505 85.365 54.0505 84.645C54.0505 83.915 53.8705 83.34 53.5105 82.92C53.1505 82.49 52.6405 82.275 51.9805 82.275C51.3105 82.275 50.7955 82.49 50.4355 82.92C50.0755 83.34 49.8955 83.915 49.8955 84.645C49.8955 85.365 50.0755 85.94 50.4355 86.37C50.7955 86.79 51.3105 87 51.9805 87ZM67.3118 83.025C67.3118 83.695 67.1568 84.305 66.8468 84.855C66.5368 85.395 66.0768 85.825 65.4668 86.145C64.8668 86.465 64.1368 86.625 63.2768 86.625H61.9568V90H58.6268V79.38H63.2768C64.5768 79.38 65.5718 79.71 66.2618 80.37C66.9618 81.03 67.3118 81.915 67.3118 83.025ZM62.9018 84C63.5918 84 63.9368 83.675 63.9368 83.025C63.9368 82.375 63.5918 82.05 62.9018 82.05H61.9568V84H62.9018ZM72.523 90.105C71.253 90.105 70.203 89.81 69.373 89.22C68.553 88.62 68.108 87.745 68.038 86.595H71.578C71.628 87.205 71.898 87.51 72.388 87.51C72.568 87.51 72.718 87.47 72.838 87.39C72.968 87.3 73.033 87.165 73.033 86.985C73.033 86.735 72.898 86.535 72.628 86.385C72.358 86.225 71.938 86.045 71.368 85.845C70.688 85.605 70.123 85.37 69.673 85.14C69.233 84.91 68.853 84.575 68.533 84.135C68.213 83.695 68.058 83.13 68.068 82.44C68.068 81.75 68.243 81.165 68.593 80.685C68.953 80.195 69.438 79.825 70.048 79.575C70.668 79.325 71.363 79.2 72.133 79.2C73.433 79.2 74.463 79.5 75.223 80.1C75.993 80.7 76.398 81.545 76.438 82.635H72.853C72.843 82.335 72.768 82.12 72.628 81.99C72.488 81.86 72.318 81.795 72.118 81.795C71.978 81.795 71.863 81.845 71.773 81.945C71.683 82.035 71.638 82.165 71.638 82.335C71.638 82.575 71.768 82.775 72.028 82.935C72.298 83.085 72.723 83.27 73.303 83.49C73.973 83.74 74.523 83.98 74.953 84.21C75.393 84.44 75.773 84.76 76.093 85.17C76.413 85.58 76.573 86.095 76.573 86.715C76.573 87.365 76.413 87.95 76.093 88.47C75.773 88.98 75.308 89.38 74.698 89.67C74.088 89.96 73.363 90.105 72.523 90.105ZM80.3219 88.35V85.575L84.7919 79.2H88.3769V85.47H89.4569V88.35H88.3769V90H85.0169V88.35H80.3219ZM85.2869 82.995L83.6669 85.47H85.2869V82.995ZM96.6572 79.38V85.365C96.6572 85.855 96.7622 86.245 96.9722 86.535C97.1922 86.815 97.5422 86.955 98.0222 86.955C98.5022 86.955 98.8572 86.815 99.0872 86.535C99.3172 86.245 99.4322 85.855 99.4322 85.365V79.38H102.747V85.365C102.747 86.375 102.537 87.24 102.117 87.96C101.697 88.67 101.122 89.205 100.392 89.565C99.6622 89.925 98.8472 90.105 97.9472 90.105C97.0472 90.105 96.2472 89.925 95.5472 89.565C94.8572 89.205 94.3172 88.67 93.9272 87.96C93.5372 87.25 93.3422 86.385 93.3422 85.365V79.38H96.6572Z" fill="black"/>
</svg>
