<svg width="55" height="55" viewBox="0 0 55 55" fill="none" xmlns="http://www.w3.org/2000/svg">
<circle cx="27.5" cy="27.5" r="25" fill="white" stroke="#001BDE" stroke-width="5"/>
<path d="M16.8703 24.0655C18.7333 24.0655 20.2435 22.5186 20.2435 20.6103C20.2435 18.702 18.7333 17.155 16.8703 17.155C15.0073 17.155 13.4971 18.702 13.4971 20.6103C13.4971 22.5186 15.0073 24.0655 16.8703 24.0655Z" fill="#001BDE"/>
<path d="M34.4426 20.6905C36.3055 20.6905 37.8158 19.1436 37.8158 17.2353C37.8158 15.327 36.3055 13.78 34.4426 13.78C32.5796 13.78 31.0693 15.327 31.0693 17.2353C31.0693 19.1436 32.5796 20.6905 34.4426 20.6905Z" fill="#001BDE"/>
<path d="M40.4669 24.0655C42.393 31.1633 38.3033 38.5263 31.3322 40.511C24.3612 42.4958 17.1487 38.3508 15.2227 31.2531" stroke="#001BDE" stroke-width="5" stroke-linecap="round"/>
</svg>
