<svg width="532" height="154" viewBox="0 0 532 154" fill="none" xmlns="http://www.w3.org/2000/svg">
<path d="M109.585 10.9L108.255 17.2H113.085V20H107.66L106.155 27H103.11L104.615 20H97.2653L95.7603 27H92.7153L94.2203 20H88.7253V17.2H94.8153L96.1453 10.9H90.7203V8.1H96.7403L98.2453 1.1H101.29L99.7853 8.1H107.135L108.64 1.1H111.685L110.18 8.1H115.045V10.9H109.585ZM106.54 10.9H99.1903L97.8603 17.2H105.21L106.54 10.9ZM118.295 4.6V1.695H124.875V27H121.655V4.6H118.295ZM129.961 24.445C132.924 22.065 135.246 20.1167 136.926 18.6C138.606 17.06 140.017 15.4617 141.161 13.805C142.327 12.125 142.911 10.48 142.911 8.87C142.911 7.35333 142.537 6.16333 141.791 5.3C141.067 4.41333 139.889 3.97 138.256 3.97C136.669 3.97 135.432 4.47167 134.546 5.475C133.682 6.455 133.216 7.77333 133.146 9.43H130.066C130.159 6.81667 130.952 4.79833 132.446 3.375C133.939 1.95167 135.864 1.24 138.221 1.24C140.624 1.24 142.526 1.905 143.926 3.235C145.349 4.565 146.061 6.39667 146.061 8.73C146.061 10.6667 145.477 12.5567 144.311 14.4C143.167 16.22 141.861 17.83 140.391 19.23C138.921 20.6067 137.042 22.2167 134.756 24.06H146.796V26.72H129.961V24.445ZM174.124 2.605V5.195H163.519V13.42H172.129V16.01H163.519V27H160.334V2.605H174.124ZM179.615 4.705C179.009 4.705 178.495 4.495 178.075 4.075C177.655 3.655 177.445 3.14167 177.445 2.535C177.445 1.92833 177.655 1.415 178.075 0.994999C178.495 0.574999 179.009 0.364999 179.615 0.364999C180.199 0.364999 180.689 0.574999 181.085 0.994999C181.505 1.415 181.715 1.92833 181.715 2.535C181.715 3.14167 181.505 3.655 181.085 4.075C180.689 4.495 180.199 4.705 179.615 4.705ZM181.155 7.82V27H177.97V7.82H181.155ZM189.769 1.1V27H186.584V1.1H189.769ZM196.842 4.705C196.235 4.705 195.722 4.495 195.302 4.075C194.882 3.655 194.672 3.14167 194.672 2.535C194.672 1.92833 194.882 1.415 195.302 0.994999C195.722 0.574999 196.235 0.364999 196.842 0.364999C197.425 0.364999 197.915 0.574999 198.312 0.994999C198.732 1.415 198.942 1.92833 198.942 2.535C198.942 3.14167 198.732 3.655 198.312 4.075C197.915 4.495 197.425 4.705 196.842 4.705ZM198.382 7.82V27H195.197V7.82H198.382ZM206.995 11.355C207.625 10.2583 208.559 9.34833 209.795 8.625C211.055 7.87833 212.514 7.505 214.17 7.505C215.874 7.505 217.414 7.91333 218.79 8.73C220.19 9.54667 221.287 10.7017 222.08 12.195C222.874 13.665 223.27 15.38 223.27 17.34C223.27 19.2767 222.874 21.0033 222.08 22.52C221.287 24.0367 220.19 25.215 218.79 26.055C217.414 26.895 215.874 27.315 214.17 27.315C212.537 27.315 211.09 26.9533 209.83 26.23C208.594 25.4833 207.649 24.5617 206.995 23.465V36.1H203.81V7.82H206.995V11.355ZM220.015 17.34C220.015 15.8933 219.724 14.6333 219.14 13.56C218.557 12.4867 217.764 11.67 216.76 11.11C215.78 10.55 214.695 10.27 213.505 10.27C212.339 10.27 211.254 10.5617 210.25 11.145C209.27 11.705 208.477 12.5333 207.87 13.63C207.287 14.7033 206.995 15.9517 206.995 17.375C206.995 18.8217 207.287 20.0933 207.87 21.19C208.477 22.2633 209.27 23.0917 210.25 23.675C211.254 24.235 212.339 24.515 213.505 24.515C214.695 24.515 215.78 24.235 216.76 23.675C217.764 23.0917 218.557 22.2633 219.14 21.19C219.724 20.0933 220.015 18.81 220.015 17.34ZM229.108 4.705C228.501 4.705 227.988 4.495 227.568 4.075C227.148 3.655 226.938 3.14167 226.938 2.535C226.938 1.92833 227.148 1.415 227.568 0.994999C227.988 0.574999 228.501 0.364999 229.108 0.364999C229.691 0.364999 230.181 0.574999 230.578 0.994999C230.998 1.415 231.208 1.92833 231.208 2.535C231.208 3.14167 230.998 3.655 230.578 4.075C230.181 4.495 229.691 4.705 229.108 4.705ZM230.648 7.82V27H227.463V7.82H230.648ZM245.421 7.47C247.754 7.47 249.644 8.18167 251.091 9.605C252.538 11.005 253.261 13.035 253.261 15.695V27H250.111V16.15C250.111 14.2367 249.633 12.7783 248.676 11.775C247.719 10.7483 246.413 10.235 244.756 10.235C243.076 10.235 241.734 10.76 240.731 11.81C239.751 12.86 239.261 14.3883 239.261 16.395V27H236.076V7.82H239.261V10.55C239.891 9.57 240.743 8.81167 241.816 8.275C242.913 7.73833 244.114 7.47 245.421 7.47ZM257.274 17.34C257.274 15.38 257.67 13.665 258.464 12.195C259.257 10.7017 260.342 9.54667 261.719 8.73C263.119 7.91333 264.67 7.505 266.374 7.505C268.054 7.505 269.512 7.86667 270.749 8.59C271.985 9.31333 272.907 10.2233 273.514 11.32V7.82H276.734V27H273.514V23.43C272.884 24.55 271.939 25.4833 270.679 26.23C269.442 26.9533 267.995 27.315 266.339 27.315C264.635 27.315 263.095 26.895 261.719 26.055C260.342 25.215 259.257 24.0367 258.464 22.52C257.67 21.0033 257.274 19.2767 257.274 17.34ZM273.514 17.375C273.514 15.9283 273.222 14.6683 272.639 13.595C272.055 12.5217 271.262 11.705 270.259 11.145C269.279 10.5617 268.194 10.27 267.004 10.27C265.814 10.27 264.729 10.55 263.749 11.11C262.769 11.67 261.987 12.4867 261.404 13.56C260.82 14.6333 260.529 15.8933 260.529 17.34C260.529 18.81 260.82 20.0933 261.404 21.19C261.987 22.2633 262.769 23.0917 263.749 23.675C264.729 24.235 265.814 24.515 267.004 24.515C268.194 24.515 269.279 24.235 270.259 23.675C271.262 23.0917 272.055 22.2633 272.639 21.19C273.222 20.0933 273.514 18.8217 273.514 17.375ZM288.906 27.315C287.436 27.315 286.118 27.07 284.951 26.58C283.784 26.0667 282.863 25.3667 282.186 24.48C281.509 23.57 281.136 22.5317 281.066 21.365H284.356C284.449 22.3217 284.893 23.1033 285.686 23.71C286.503 24.3167 287.564 24.62 288.871 24.62C290.084 24.62 291.041 24.3517 291.741 23.815C292.441 23.2783 292.791 22.6017 292.791 21.785C292.791 20.945 292.418 20.3267 291.671 19.93C290.924 19.51 289.769 19.1017 288.206 18.705C286.783 18.3317 285.616 17.9583 284.706 17.585C283.819 17.1883 283.049 16.6167 282.396 15.87C281.766 15.1 281.451 14.0967 281.451 12.86C281.451 11.88 281.743 10.9817 282.326 10.165C282.909 9.34833 283.738 8.70667 284.811 8.24C285.884 7.75 287.109 7.505 288.486 7.505C290.609 7.505 292.324 8.04167 293.631 9.115C294.938 10.1883 295.638 11.6583 295.731 13.525H292.546C292.476 12.5217 292.068 11.7167 291.321 11.11C290.598 10.5033 289.618 10.2 288.381 10.2C287.238 10.2 286.328 10.445 285.651 10.935C284.974 11.425 284.636 12.0667 284.636 12.86C284.636 13.49 284.834 14.015 285.231 14.435C285.651 14.8317 286.164 15.1583 286.771 15.415C287.401 15.6483 288.264 15.9167 289.361 16.22C290.738 16.5933 291.858 16.9667 292.721 17.34C293.584 17.69 294.319 18.2267 294.926 18.95C295.556 19.6733 295.883 20.6183 295.906 21.785C295.906 22.835 295.614 23.78 295.031 24.62C294.448 25.46 293.619 26.125 292.546 26.615C291.496 27.0817 290.283 27.315 288.906 27.315ZM324.153 21.575H313.513L311.553 27H308.193L317.013 2.745H320.688L329.473 27H326.113L324.153 21.575ZM323.243 18.985L318.833 6.665L314.423 18.985H323.243ZM340.457 24.06L346.407 7.82H349.802L342.277 27H338.567L331.042 7.82H334.472L340.457 24.06ZM370.436 16.675C370.436 17.2817 370.401 17.9233 370.331 18.6H355.001C355.118 20.49 355.76 21.9717 356.926 23.045C358.116 24.095 359.551 24.62 361.231 24.62C362.608 24.62 363.751 24.305 364.661 23.675C365.595 23.0217 366.248 22.1583 366.621 21.085H370.051C369.538 22.9283 368.511 24.4333 366.971 25.6C365.431 26.7433 363.518 27.315 361.231 27.315C359.411 27.315 357.778 26.9067 356.331 26.09C354.908 25.2733 353.788 24.1183 352.971 22.625C352.155 21.1083 351.746 19.3583 351.746 17.375C351.746 15.3917 352.143 13.6533 352.936 12.16C353.73 10.6667 354.838 9.52333 356.261 8.73C357.708 7.91333 359.365 7.505 361.231 7.505C363.051 7.505 364.661 7.90167 366.061 8.695C367.461 9.48833 368.535 10.585 369.281 11.985C370.051 13.3617 370.436 14.925 370.436 16.675ZM367.146 16.01C367.146 14.7967 366.878 13.7583 366.341 12.895C365.805 12.0083 365.07 11.3433 364.136 10.9C363.226 10.4333 362.211 10.2 361.091 10.2C359.481 10.2 358.105 10.7133 356.961 11.74C355.841 12.7667 355.2 14.19 355.036 16.01H367.146ZM383.985 7.47C386.319 7.47 388.209 8.18167 389.655 9.605C391.102 11.005 391.825 13.035 391.825 15.695V27H388.675V16.15C388.675 14.2367 388.197 12.7783 387.24 11.775C386.284 10.7483 384.977 10.235 383.32 10.235C381.64 10.235 380.299 10.76 379.295 11.81C378.315 12.86 377.825 14.3883 377.825 16.395V27H374.64V7.82H377.825V10.55C378.455 9.57 379.307 8.81167 380.38 8.275C381.477 7.73833 382.679 7.47 383.985 7.47ZM414.038 7.82V27H410.853V24.165C410.246 25.145 409.395 25.915 408.298 26.475C407.225 27.0117 406.035 27.28 404.728 27.28C403.235 27.28 401.893 26.9767 400.703 26.37C399.513 25.74 398.568 24.8067 397.868 23.57C397.191 22.3333 396.853 20.8283 396.853 19.055V7.82H400.003V18.635C400.003 20.525 400.481 21.9833 401.438 23.01C402.395 24.0133 403.701 24.515 405.358 24.515C407.061 24.515 408.403 23.99 409.383 22.94C410.363 21.89 410.853 20.3617 410.853 18.355V7.82H414.038ZM436.916 16.675C436.916 17.2817 436.881 17.9233 436.811 18.6H421.481C421.597 20.49 422.239 21.9717 423.406 23.045C424.596 24.095 426.031 24.62 427.711 24.62C429.087 24.62 430.231 24.305 431.141 23.675C432.074 23.0217 432.727 22.1583 433.101 21.085H436.531C436.017 22.9283 434.991 24.4333 433.451 25.6C431.911 26.7433 429.997 27.315 427.711 27.315C425.891 27.315 424.257 26.9067 422.811 26.09C421.387 25.2733 420.267 24.1183 419.451 22.625C418.634 21.1083 418.226 19.3583 418.226 17.375C418.226 15.3917 418.622 13.6533 419.416 12.16C420.209 10.6667 421.317 9.52333 422.741 8.73C424.187 7.91333 425.844 7.505 427.711 7.505C429.531 7.505 431.141 7.90167 432.541 8.695C433.941 9.48833 435.014 10.585 435.761 11.985C436.531 13.3617 436.916 14.925 436.916 16.675ZM433.626 16.01C433.626 14.7967 433.357 13.7583 432.821 12.895C432.284 12.0083 431.549 11.3433 430.616 10.9C429.706 10.4333 428.691 10.2 427.571 10.2C425.961 10.2 424.584 10.7133 423.441 11.74C422.321 12.7667 421.679 14.19 421.516 16.01H433.626ZM462.666 14.435C463.553 14.575 464.358 14.9367 465.081 15.52C465.828 16.1033 466.411 16.8267 466.831 17.69C467.274 18.5533 467.496 19.475 467.496 20.455C467.496 21.6917 467.181 22.8117 466.551 23.815C465.921 24.795 464.999 25.5767 463.786 26.16C462.596 26.72 461.184 27 459.551 27H450.451V2.605H459.201C460.858 2.605 462.269 2.885 463.436 3.445C464.603 3.98167 465.478 4.71667 466.061 5.65C466.644 6.58333 466.936 7.63333 466.936 8.8C466.936 10.2467 466.539 11.4483 465.746 12.405C464.976 13.3383 463.949 14.015 462.666 14.435ZM453.636 13.14H458.991C460.484 13.14 461.639 12.79 462.456 12.09C463.273 11.39 463.681 10.4217 463.681 9.185C463.681 7.94833 463.273 6.98 462.456 6.28C461.639 5.58 460.461 5.23 458.921 5.23H453.636V13.14ZM459.271 24.375C460.858 24.375 462.094 24.0017 462.981 23.255C463.868 22.5083 464.311 21.47 464.311 20.14C464.311 18.7867 463.844 17.725 462.911 16.955C461.978 16.1617 460.729 15.765 459.166 15.765H453.636V24.375H459.271ZM475.101 10.935C475.661 9.83833 476.454 8.98667 477.481 8.38C478.531 7.77333 479.802 7.47 481.296 7.47V10.76H480.456C476.886 10.76 475.101 12.6967 475.101 16.57V27H471.916V7.82H475.101V10.935ZM492.882 7.505C494.539 7.505 495.986 7.86667 497.222 8.59C498.482 9.31333 499.416 10.2233 500.022 11.32V7.82H503.242V27.42C503.242 29.17 502.869 30.7217 502.122 32.075C501.376 33.4517 500.302 34.525 498.902 35.295C497.526 36.065 495.916 36.45 494.072 36.45C491.552 36.45 489.452 35.855 487.772 34.665C486.092 33.475 485.101 31.8533 484.797 29.8H487.947C488.297 30.9667 489.021 31.9 490.117 32.6C491.214 33.3233 492.532 33.685 494.072 33.685C495.822 33.685 497.246 33.1367 498.342 32.04C499.462 30.9433 500.022 29.4033 500.022 27.42V23.395C499.392 24.515 498.459 25.4483 497.222 26.195C495.986 26.9417 494.539 27.315 492.882 27.315C491.179 27.315 489.627 26.895 488.227 26.055C486.851 25.215 485.766 24.0367 484.972 22.52C484.179 21.0033 483.782 19.2767 483.782 17.34C483.782 15.38 484.179 13.665 484.972 12.195C485.766 10.7017 486.851 9.54667 488.227 8.73C489.627 7.91333 491.179 7.505 492.882 7.505ZM500.022 17.375C500.022 15.9283 499.731 14.6683 499.147 13.595C498.564 12.5217 497.771 11.705 496.767 11.145C495.787 10.5617 494.702 10.27 493.512 10.27C492.322 10.27 491.237 10.55 490.257 11.11C489.277 11.67 488.496 12.4867 487.912 13.56C487.329 14.6333 487.037 15.8933 487.037 17.34C487.037 18.81 487.329 20.0933 487.912 21.19C488.496 22.2633 489.277 23.0917 490.257 23.675C491.237 24.235 492.322 24.515 493.512 24.515C494.702 24.515 495.787 24.235 496.767 23.675C497.771 23.0917 498.564 22.2633 499.147 21.19C499.731 20.0933 500.022 18.8217 500.022 17.375ZM525.145 7.82L513.595 36.03H510.305L514.085 26.79L506.35 7.82H509.885L515.905 23.36L521.855 7.82H525.145ZM529.361 27.21C528.755 27.21 528.241 27 527.821 26.58C527.401 26.16 527.191 25.6467 527.191 25.04C527.191 24.4333 527.401 23.92 527.821 23.5C528.241 23.08 528.755 22.87 529.361 22.87C529.945 22.87 530.435 23.08 530.831 23.5C531.251 23.92 531.461 24.4333 531.461 25.04C531.461 25.6467 531.251 26.16 530.831 26.58C530.435 27 529.945 27.21 529.361 27.21ZM8.30953 44.605C10.9695 44.605 13.2679 45.1067 15.2045 46.11C17.1645 47.09 18.6579 48.5017 19.6845 50.345C20.7345 52.1883 21.2595 54.3583 21.2595 56.855C21.2595 59.3517 20.7345 61.5217 19.6845 63.365C18.6579 65.185 17.1645 66.585 15.2045 67.565C13.2679 68.5217 10.9695 69 8.30953 69H0.714531V44.605H8.30953ZM8.30953 66.375C11.4595 66.375 13.8629 65.5467 15.5195 63.89C17.1762 62.21 18.0045 59.865 18.0045 56.855C18.0045 53.8217 17.1645 51.4533 15.4845 49.75C13.8279 48.0467 11.4362 47.195 8.30953 47.195H3.89953V66.375H8.30953ZM42.4706 49.82V69H39.2856V66.165C38.679 67.145 37.8273 67.915 36.7306 68.475C35.6573 69.0117 34.4673 69.28 33.1606 69.28C31.6673 69.28 30.3256 68.9767 29.1356 68.37C27.9456 67.74 27.0006 66.8067 26.3006 65.57C25.624 64.3333 25.2856 62.8283 25.2856 61.055V49.82H28.4356V60.635C28.4356 62.525 28.914 63.9833 29.8706 65.01C30.8273 66.0133 32.134 66.515 33.7906 66.515C35.494 66.515 36.8356 65.99 37.8156 64.94C38.7956 63.89 39.2856 62.3617 39.2856 60.355V49.82H42.4706ZM51.0333 43.1V69H47.8483V43.1H51.0333ZM73.4716 49.82V69H70.2866V66.165C69.6799 67.145 68.8283 67.915 67.7316 68.475C66.6583 69.0117 65.4683 69.28 64.1616 69.28C62.6683 69.28 61.3266 68.9767 60.1366 68.37C58.9466 67.74 58.0016 66.8067 57.3016 65.57C56.6249 64.3333 56.2866 62.8283 56.2866 61.055V49.82H59.4366V60.635C59.4366 62.525 59.9149 63.9833 60.8716 65.01C61.8283 66.0133 63.1349 66.515 64.7916 66.515C66.4949 66.515 67.8366 65.99 68.8166 64.94C69.7966 63.89 70.2866 62.3617 70.2866 60.355V49.82H73.4716ZM101.914 49.47C103.408 49.47 104.738 49.785 105.904 50.415C107.071 51.0217 107.993 51.9433 108.669 53.18C109.346 54.4167 109.684 55.9217 109.684 57.695V69H106.534V58.15C106.534 56.2367 106.056 54.7783 105.099 53.775C104.166 52.7483 102.894 52.235 101.284 52.235C99.6276 52.235 98.3093 52.7717 97.3293 53.845C96.3493 54.895 95.8593 56.4233 95.8593 58.43V69H92.7093V58.15C92.7093 56.2367 92.231 54.7783 91.2743 53.775C90.341 52.7483 89.0693 52.235 87.4593 52.235C85.8026 52.235 84.4843 52.7717 83.5043 53.845C82.5243 54.895 82.0343 56.4233 82.0343 58.43V69H78.8493V49.82H82.0343V52.585C82.6643 51.5817 83.5043 50.8117 84.5543 50.275C85.6276 49.7383 86.806 49.47 88.0893 49.47C89.6993 49.47 91.1226 49.8317 92.3593 50.555C93.596 51.2783 94.5176 52.34 95.1243 53.74C95.661 52.3867 96.5476 51.3367 97.7843 50.59C99.021 49.8433 100.398 49.47 101.914 49.47ZM118.094 53.39C118.747 52.2467 119.704 51.3133 120.964 50.59C122.224 49.8667 123.659 49.505 125.269 49.505C126.996 49.505 128.547 49.9133 129.924 50.73C131.301 51.5467 132.386 52.7017 133.179 54.195C133.972 55.665 134.369 57.38 134.369 59.34C134.369 61.2767 133.972 63.0033 133.179 64.52C132.386 66.0367 131.289 67.215 129.889 68.055C128.512 68.895 126.972 69.315 125.269 69.315C123.612 69.315 122.154 68.9533 120.894 68.23C119.657 67.5067 118.724 66.585 118.094 65.465V69H114.909V43.1H118.094V53.39ZM131.114 59.34C131.114 57.8933 130.822 56.6333 130.239 55.56C129.656 54.4867 128.862 53.67 127.859 53.11C126.879 52.55 125.794 52.27 124.604 52.27C123.437 52.27 122.352 52.5617 121.349 53.145C120.369 53.705 119.576 54.5333 118.969 55.63C118.386 56.7033 118.094 57.9517 118.094 59.375C118.094 60.8217 118.386 62.0933 118.969 63.19C119.576 64.2633 120.369 65.0917 121.349 65.675C122.352 66.235 123.437 66.515 124.604 66.515C125.794 66.515 126.879 66.235 127.859 65.675C128.862 65.0917 129.656 64.2633 130.239 63.19C130.822 62.0933 131.114 60.81 131.114 59.34ZM137.371 59.34C137.371 57.38 137.768 55.665 138.561 54.195C139.355 52.7017 140.44 51.5467 141.816 50.73C143.216 49.9133 144.768 49.505 146.471 49.505C148.151 49.505 149.61 49.8667 150.846 50.59C152.083 51.3133 153.005 52.2233 153.611 53.32V49.82H156.831V69H153.611V65.43C152.981 66.55 152.036 67.4833 150.776 68.23C149.54 68.9533 148.093 69.315 146.436 69.315C144.733 69.315 143.193 68.895 141.816 68.055C140.44 67.215 139.355 66.0367 138.561 64.52C137.768 63.0033 137.371 61.2767 137.371 59.34ZM153.611 59.375C153.611 57.9283 153.32 56.6683 152.736 55.595C152.153 54.5217 151.36 53.705 150.356 53.145C149.376 52.5617 148.291 52.27 147.101 52.27C145.911 52.27 144.826 52.55 143.846 53.11C142.866 53.67 142.085 54.4867 141.501 55.56C140.918 56.6333 140.626 57.8933 140.626 59.34C140.626 60.81 140.918 62.0933 141.501 63.19C142.085 64.2633 142.866 65.0917 143.846 65.675C144.826 66.235 145.911 66.515 147.101 66.515C148.291 66.515 149.376 66.235 150.356 65.675C151.36 65.0917 152.153 64.2633 152.736 63.19C153.32 62.0933 153.611 60.8217 153.611 59.375ZM178.734 49.82L167.184 78.03H163.894L167.674 68.79L159.939 49.82H163.474L169.494 65.36L175.444 49.82H178.734ZM180.745 59.34C180.745 57.38 181.142 55.665 181.935 54.195C182.729 52.7017 183.814 51.5467 185.19 50.73C186.59 49.9133 188.142 49.505 189.845 49.505C191.525 49.505 192.984 49.8667 194.22 50.59C195.457 51.3133 196.379 52.2233 196.985 53.32V49.82H200.205V69H196.985V65.43C196.355 66.55 195.41 67.4833 194.15 68.23C192.914 68.9533 191.467 69.315 189.81 69.315C188.107 69.315 186.567 68.895 185.19 68.055C183.814 67.215 182.729 66.0367 181.935 64.52C181.142 63.0033 180.745 61.2767 180.745 59.34ZM196.985 59.375C196.985 57.9283 196.694 56.6683 196.11 55.595C195.527 54.5217 194.734 53.705 193.73 53.145C192.75 52.5617 191.665 52.27 190.475 52.27C189.285 52.27 188.2 52.55 187.22 53.11C186.24 53.67 185.459 54.4867 184.875 55.56C184.292 56.6333 184 57.8933 184 59.34C184 60.81 184.292 62.0933 184.875 63.19C185.459 64.2633 186.24 65.0917 187.22 65.675C188.2 66.235 189.285 66.515 190.475 66.515C191.665 66.515 192.75 66.235 193.73 65.675C194.734 65.0917 195.527 64.2633 196.11 63.19C196.694 62.0933 196.985 60.8217 196.985 59.375ZM214.933 49.47C217.266 49.47 219.156 50.1817 220.603 51.605C222.049 53.005 222.773 55.035 222.773 57.695V69H219.623V58.15C219.623 56.2367 219.144 54.7783 218.188 53.775C217.231 52.7483 215.924 52.235 214.268 52.235C212.588 52.235 211.246 52.76 210.243 53.81C209.263 54.86 208.773 56.3883 208.773 58.395V69H205.588V49.82H208.773V52.55C209.403 51.57 210.254 50.8117 211.328 50.275C212.424 49.7383 213.626 49.47 214.933 49.47ZM252.321 44.605V47.195H245.671V69H242.486V47.195H235.801V44.605H252.321ZM273.742 58.675C273.742 59.2817 273.707 59.9233 273.637 60.6H258.307C258.424 62.49 259.065 63.9717 260.232 65.045C261.422 66.095 262.857 66.62 264.537 66.62C265.914 66.62 267.057 66.305 267.967 65.675C268.9 65.0217 269.554 64.1583 269.927 63.085H273.357C272.844 64.9283 271.817 66.4333 270.277 67.6C268.737 68.7433 266.824 69.315 264.537 69.315C262.717 69.315 261.084 68.9067 259.637 68.09C258.214 67.2733 257.094 66.1183 256.277 64.625C255.46 63.1083 255.052 61.3583 255.052 59.375C255.052 57.3917 255.449 55.6533 256.242 54.16C257.035 52.6667 258.144 51.5233 259.567 50.73C261.014 49.9133 262.67 49.505 264.537 49.505C266.357 49.505 267.967 49.9017 269.367 50.695C270.767 51.4883 271.84 52.585 272.587 53.985C273.357 55.3617 273.742 56.925 273.742 58.675ZM270.452 58.01C270.452 56.7967 270.184 55.7583 269.647 54.895C269.11 54.0083 268.375 53.3433 267.442 52.9C266.532 52.4333 265.517 52.2 264.397 52.2C262.787 52.2 261.41 52.7133 260.267 53.74C259.147 54.7667 258.505 56.19 258.342 58.01H270.452ZM281.131 52.935C281.691 51.8383 282.484 50.9867 283.511 50.38C284.561 49.7733 285.833 49.47 287.326 49.47V52.76H286.486C282.916 52.76 281.131 54.6967 281.131 58.57V69H277.946V49.82H281.131V52.935ZM308.503 58.675C308.503 59.2817 308.468 59.9233 308.398 60.6H293.068C293.184 62.49 293.826 63.9717 294.993 65.045C296.183 66.095 297.618 66.62 299.298 66.62C300.674 66.62 301.818 66.305 302.728 65.675C303.661 65.0217 304.314 64.1583 304.688 63.085H308.118C307.604 64.9283 306.578 66.4333 305.038 67.6C303.498 68.7433 301.584 69.315 299.298 69.315C297.478 69.315 295.844 68.9067 294.398 68.09C292.974 67.2733 291.854 66.1183 291.038 64.625C290.221 63.1083 289.813 61.3583 289.813 59.375C289.813 57.3917 290.209 55.6533 291.003 54.16C291.796 52.6667 292.904 51.5233 294.328 50.73C295.774 49.9133 297.431 49.505 299.298 49.505C301.118 49.505 302.728 49.9017 304.128 50.695C305.528 51.4883 306.601 52.585 307.348 53.985C308.118 55.3617 308.503 56.925 308.503 58.675ZM305.213 58.01C305.213 56.7967 304.944 55.7583 304.408 54.895C303.871 54.0083 303.136 53.3433 302.203 52.9C301.293 52.4333 300.278 52.2 299.158 52.2C297.548 52.2 296.171 52.7133 295.028 53.74C293.908 54.7667 293.266 56.19 293.103 58.01H305.213ZM319.497 69.315C318.027 69.315 316.708 69.07 315.542 68.58C314.375 68.0667 313.453 67.3667 312.777 66.48C312.1 65.57 311.727 64.5317 311.657 63.365H314.947C315.04 64.3217 315.483 65.1033 316.277 65.71C317.093 66.3167 318.155 66.62 319.462 66.62C320.675 66.62 321.632 66.3517 322.332 65.815C323.032 65.2783 323.382 64.6017 323.382 63.785C323.382 62.945 323.008 62.3267 322.262 61.93C321.515 61.51 320.36 61.1017 318.797 60.705C317.373 60.3317 316.207 59.9583 315.297 59.585C314.41 59.1883 313.64 58.6167 312.987 57.87C312.357 57.1 312.042 56.0967 312.042 54.86C312.042 53.88 312.333 52.9817 312.917 52.165C313.5 51.3483 314.328 50.7067 315.402 50.24C316.475 49.75 317.7 49.505 319.077 49.505C321.2 49.505 322.915 50.0417 324.222 51.115C325.528 52.1883 326.228 53.6583 326.322 55.525H323.137C323.067 54.5217 322.658 53.7167 321.912 53.11C321.188 52.5033 320.208 52.2 318.972 52.2C317.828 52.2 316.918 52.445 316.242 52.935C315.565 53.425 315.227 54.0667 315.227 54.86C315.227 55.49 315.425 56.015 315.822 56.435C316.242 56.8317 316.755 57.1583 317.362 57.415C317.992 57.6483 318.855 57.9167 319.952 58.22C321.328 58.5933 322.448 58.9667 323.312 59.34C324.175 59.69 324.91 60.2267 325.517 60.95C326.147 61.6733 326.473 62.6183 326.497 63.785C326.497 64.835 326.205 65.78 325.622 66.62C325.038 67.46 324.21 68.125 323.137 68.615C322.087 69.0817 320.873 69.315 319.497 69.315ZM329.803 59.34C329.803 57.38 330.2 55.665 330.993 54.195C331.786 52.7017 332.871 51.5467 334.248 50.73C335.648 49.9133 337.2 49.505 338.903 49.505C340.583 49.505 342.041 49.8667 343.278 50.59C344.515 51.3133 345.436 52.2233 346.043 53.32V49.82H349.263V69H346.043V65.43C345.413 66.55 344.468 67.4833 343.208 68.23C341.971 68.9533 340.525 69.315 338.868 69.315C337.165 69.315 335.625 68.895 334.248 68.055C332.871 67.215 331.786 66.0367 330.993 64.52C330.2 63.0033 329.803 61.2767 329.803 59.34ZM346.043 59.375C346.043 57.9283 345.751 56.6683 345.168 55.595C344.585 54.5217 343.791 53.705 342.788 53.145C341.808 52.5617 340.723 52.27 339.533 52.27C338.343 52.27 337.258 52.55 336.278 53.11C335.298 53.67 334.516 54.4867 333.933 55.56C333.35 56.6333 333.058 57.8933 333.058 59.34C333.058 60.81 333.35 62.0933 333.933 63.19C334.516 64.2633 335.298 65.0917 336.278 65.675C337.258 66.235 338.343 66.515 339.533 66.515C340.723 66.515 341.808 66.235 342.788 65.675C343.791 65.0917 344.585 64.2633 345.168 63.19C345.751 62.0933 346.043 60.8217 346.043 59.375ZM357.935 64.59L354.015 74.005H351.88L354.435 64.59H357.935ZM383.76 69L377.95 59.025H374.1V69H370.915V44.605H378.79C380.633 44.605 382.185 44.92 383.445 45.55C384.728 46.18 385.685 47.0317 386.315 48.105C386.945 49.1783 387.26 50.4033 387.26 51.78C387.26 53.46 386.77 54.9417 385.79 56.225C384.833 57.5083 383.386 58.36 381.45 58.78L387.575 69H383.76ZM374.1 56.47H378.79C380.516 56.47 381.811 56.05 382.675 55.21C383.538 54.3467 383.97 53.2033 383.97 51.78C383.97 50.3333 383.538 49.2133 382.675 48.42C381.835 47.6267 380.54 47.23 378.79 47.23H374.1V56.47ZM393.854 46.705C393.247 46.705 392.734 46.495 392.314 46.075C391.894 45.655 391.684 45.1417 391.684 44.535C391.684 43.9283 391.894 43.415 392.314 42.995C392.734 42.575 393.247 42.365 393.854 42.365C394.437 42.365 394.927 42.575 395.324 42.995C395.744 43.415 395.954 43.9283 395.954 44.535C395.954 45.1417 395.744 45.655 395.324 46.075C394.927 46.495 394.437 46.705 393.854 46.705ZM395.394 49.82V69H392.209V49.82H395.394ZM403.202 66.375H412.617V69H399.562V66.375L408.872 52.41H399.632V49.82H412.547V52.41L403.202 66.375ZM415.56 59.34C415.56 57.38 415.956 55.665 416.75 54.195C417.543 52.7017 418.628 51.5467 420.005 50.73C421.405 49.9133 422.956 49.505 424.66 49.505C426.34 49.505 427.798 49.8667 429.035 50.59C430.271 51.3133 431.193 52.2233 431.8 53.32V49.82H435.02V69H431.8V65.43C431.17 66.55 430.225 67.4833 428.965 68.23C427.728 68.9533 426.281 69.315 424.625 69.315C422.921 69.315 421.381 68.895 420.005 68.055C418.628 67.215 417.543 66.0367 416.75 64.52C415.956 63.0033 415.56 61.2767 415.56 59.34ZM431.8 59.375C431.8 57.9283 431.508 56.6683 430.925 55.595C430.341 54.5217 429.548 53.705 428.545 53.145C427.565 52.5617 426.48 52.27 425.29 52.27C424.1 52.27 423.015 52.55 422.035 53.11C421.055 53.67 420.273 54.4867 419.69 55.56C419.106 56.6333 418.815 57.8933 418.815 59.34C418.815 60.81 419.106 62.0933 419.69 63.19C420.273 64.2633 421.055 65.0917 422.035 65.675C423.015 66.235 424.1 66.515 425.29 66.515C426.48 66.515 427.565 66.235 428.545 65.675C429.548 65.0917 430.341 64.2633 430.925 63.19C431.508 62.0933 431.8 60.8217 431.8 59.375ZM443.587 43.1V69H440.402V43.1H443.587ZM456.981 46.6V43.695H463.561V69H460.341V46.6H456.981ZM473.652 55.84C472.346 55.3267 471.342 54.58 470.642 53.6C469.942 52.62 469.592 51.43 469.592 50.03C469.592 48.77 469.907 47.6383 470.537 46.635C471.167 45.6083 472.101 44.8033 473.337 44.22C474.597 43.6133 476.114 43.31 477.887 43.31C479.661 43.31 481.166 43.6133 482.402 44.22C483.662 44.8033 484.607 45.6083 485.237 46.635C485.891 47.6383 486.217 48.77 486.217 50.03C486.217 51.3833 485.856 52.5733 485.132 53.6C484.409 54.6033 483.417 55.35 482.157 55.84C483.604 56.2833 484.747 57.065 485.587 58.185C486.451 59.2817 486.882 60.6117 486.882 62.175C486.882 63.6917 486.509 65.0217 485.762 66.165C485.016 67.285 483.954 68.16 482.577 68.79C481.224 69.3967 479.661 69.7 477.887 69.7C476.114 69.7 474.551 69.3967 473.197 68.79C471.867 68.16 470.829 67.285 470.082 66.165C469.336 65.0217 468.962 63.6917 468.962 62.175C468.962 60.6117 469.382 59.27 470.222 58.15C471.062 57.03 472.206 56.26 473.652 55.84ZM483.137 50.415C483.137 48.9917 482.671 47.895 481.737 47.125C480.804 46.355 479.521 45.97 477.887 45.97C476.277 45.97 475.006 46.355 474.072 47.125C473.139 47.895 472.672 49.0033 472.672 50.45C472.672 51.7567 473.151 52.8067 474.107 53.6C475.087 54.3933 476.347 54.79 477.887 54.79C479.451 54.79 480.711 54.3933 481.667 53.6C482.647 52.7833 483.137 51.7217 483.137 50.415ZM477.887 57.24C476.161 57.24 474.749 57.6483 473.652 58.465C472.556 59.2583 472.007 60.46 472.007 62.07C472.007 63.5633 472.532 64.765 473.582 65.675C474.656 66.585 476.091 67.04 477.887 67.04C479.684 67.04 481.107 66.585 482.157 65.675C483.207 64.765 483.732 63.5633 483.732 62.07C483.732 60.5067 483.196 59.3167 482.122 58.5C481.049 57.66 479.637 57.24 477.887 57.24ZM495.732 55.84C494.426 55.3267 493.422 54.58 492.722 53.6C492.022 52.62 491.672 51.43 491.672 50.03C491.672 48.77 491.987 47.6383 492.617 46.635C493.247 45.6083 494.181 44.8033 495.417 44.22C496.677 43.6133 498.194 43.31 499.967 43.31C501.741 43.31 503.246 43.6133 504.482 44.22C505.742 44.8033 506.687 45.6083 507.317 46.635C507.971 47.6383 508.297 48.77 508.297 50.03C508.297 51.3833 507.936 52.5733 507.212 53.6C506.489 54.6033 505.497 55.35 504.237 55.84C505.684 56.2833 506.827 57.065 507.667 58.185C508.531 59.2817 508.962 60.6117 508.962 62.175C508.962 63.6917 508.589 65.0217 507.842 66.165C507.096 67.285 506.034 68.16 504.657 68.79C503.304 69.3967 501.741 69.7 499.967 69.7C498.194 69.7 496.631 69.3967 495.277 68.79C493.947 68.16 492.909 67.285 492.162 66.165C491.416 65.0217 491.042 63.6917 491.042 62.175C491.042 60.6117 491.462 59.27 492.302 58.15C493.142 57.03 494.286 56.26 495.732 55.84ZM505.217 50.415C505.217 48.9917 504.751 47.895 503.817 47.125C502.884 46.355 501.601 45.97 499.967 45.97C498.357 45.97 497.086 46.355 496.152 47.125C495.219 47.895 494.752 49.0033 494.752 50.45C494.752 51.7567 495.231 52.8067 496.187 53.6C497.167 54.3933 498.427 54.79 499.967 54.79C501.531 54.79 502.791 54.3933 503.747 53.6C504.727 52.7833 505.217 51.7217 505.217 50.415ZM499.967 57.24C498.241 57.24 496.829 57.6483 495.732 58.465C494.636 59.2583 494.087 60.46 494.087 62.07C494.087 63.5633 494.612 64.765 495.662 65.675C496.736 66.585 498.171 67.04 499.967 67.04C501.764 67.04 503.187 66.585 504.237 65.675C505.287 64.765 505.812 63.5633 505.812 62.07C505.812 60.5067 505.276 59.3167 504.202 58.5C503.129 57.66 501.717 57.24 499.967 57.24ZM513.192 56.085C513.192 52.0717 513.846 48.945 515.152 46.705C516.459 44.4417 518.746 43.31 522.012 43.31C525.256 43.31 527.531 44.4417 528.837 46.705C530.144 48.945 530.797 52.0717 530.797 56.085C530.797 60.1683 530.144 63.3417 528.837 65.605C527.531 67.8683 525.256 69 522.012 69C518.746 69 516.459 67.8683 515.152 65.605C513.846 63.3417 513.192 60.1683 513.192 56.085ZM527.647 56.085C527.647 54.055 527.507 52.34 527.227 50.94C526.971 49.5167 526.422 48.3733 525.582 47.51C524.766 46.6467 523.576 46.215 522.012 46.215C520.426 46.215 519.212 46.6467 518.372 47.51C517.556 48.3733 517.007 49.5167 516.727 50.94C516.471 52.34 516.342 54.055 516.342 56.085C516.342 58.185 516.471 59.9467 516.727 61.37C517.007 62.7933 517.556 63.9367 518.372 64.8C519.212 65.6633 520.426 66.095 522.012 66.095C523.576 66.095 524.766 65.6633 525.582 64.8C526.422 63.9367 526.971 62.7933 527.227 61.37C527.507 59.9467 527.647 58.185 527.647 56.085ZM37.5827 111.315C36.1127 111.315 34.7943 111.07 33.6277 110.58C32.461 110.067 31.5393 109.367 30.8627 108.48C30.186 107.57 29.8127 106.532 29.7427 105.365H33.0327C33.126 106.322 33.5693 107.103 34.3627 107.71C35.1793 108.317 36.241 108.62 37.5477 108.62C38.761 108.62 39.7177 108.352 40.4177 107.815C41.1177 107.278 41.4677 106.602 41.4677 105.785C41.4677 104.945 41.0943 104.327 40.3477 103.93C39.601 103.51 38.446 103.102 36.8827 102.705C35.4593 102.332 34.2927 101.958 33.3827 101.585C32.496 101.188 31.726 100.617 31.0727 99.87C30.4427 99.1 30.1277 98.0967 30.1277 96.86C30.1277 95.88 30.4193 94.9817 31.0027 94.165C31.586 93.3483 32.4143 92.7067 33.4877 92.24C34.561 91.75 35.786 91.505 37.1627 91.505C39.286 91.505 41.001 92.0417 42.3077 93.115C43.6143 94.1883 44.3143 95.6583 44.4077 97.525H41.2227C41.1527 96.5217 40.7443 95.7167 39.9977 95.11C39.2743 94.5033 38.2943 94.2 37.0577 94.2C35.9143 94.2 35.0043 94.445 34.3277 94.935C33.651 95.425 33.3127 96.0667 33.3127 96.86C33.3127 97.49 33.511 98.015 33.9077 98.435C34.3277 98.8317 34.841 99.1583 35.4477 99.415C36.0777 99.6483 36.941 99.9167 38.0377 100.22C39.4143 100.593 40.5343 100.967 41.3977 101.34C42.261 101.69 42.996 102.227 43.6027 102.95C44.2327 103.673 44.5593 104.618 44.5827 105.785C44.5827 106.835 44.291 107.78 43.7077 108.62C43.1243 109.46 42.296 110.125 41.2227 110.615C40.1727 111.082 38.9593 111.315 37.5827 111.315ZM47.8888 101.375C47.8888 99.3917 48.2855 97.665 49.0788 96.195C49.8721 94.7017 50.9688 93.5467 52.3688 92.73C53.7921 91.9133 55.4138 91.505 57.2338 91.505C59.5905 91.505 61.5271 92.0767 63.0438 93.22C64.5838 94.3633 65.5988 95.95 66.0888 97.98H62.6588C62.3321 96.8133 61.6905 95.8917 60.7338 95.215C59.8005 94.5383 58.6338 94.2 57.2338 94.2C55.4138 94.2 53.9438 94.83 52.8238 96.09C51.7038 97.3267 51.1438 99.0883 51.1438 101.375C51.1438 103.685 51.7038 105.47 52.8238 106.73C53.9438 107.99 55.4138 108.62 57.2338 108.62C58.6338 108.62 59.8005 108.293 60.7338 107.64C61.6671 106.987 62.3088 106.053 62.6588 104.84H66.0888C65.5755 106.8 64.5488 108.375 63.0088 109.565C61.4688 110.732 59.5438 111.315 57.2338 111.315C55.4138 111.315 53.7921 110.907 52.3688 110.09C50.9688 109.273 49.8721 108.118 49.0788 106.625C48.2855 105.132 47.8888 103.382 47.8888 101.375ZM78.7036 111.315C76.9069 111.315 75.2736 110.907 73.8036 110.09C72.3569 109.273 71.2136 108.118 70.3736 106.625C69.5569 105.108 69.1486 103.358 69.1486 101.375C69.1486 99.415 69.5686 97.6883 70.4086 96.195C71.2719 94.6783 72.4386 93.5233 73.9086 92.73C75.3786 91.9133 77.0236 91.505 78.8436 91.505C80.6636 91.505 82.3086 91.9133 83.7786 92.73C85.2486 93.5233 86.4036 94.6667 87.2436 96.16C88.1069 97.6533 88.5386 99.3917 88.5386 101.375C88.5386 103.358 88.0952 105.108 87.2086 106.625C86.3452 108.118 85.1669 109.273 83.6736 110.09C82.1802 110.907 80.5236 111.315 78.7036 111.315ZM78.7036 108.515C79.8469 108.515 80.9202 108.247 81.9236 107.71C82.9269 107.173 83.7319 106.368 84.3386 105.295C84.9686 104.222 85.2836 102.915 85.2836 101.375C85.2836 99.835 84.9802 98.5283 84.3736 97.455C83.7669 96.3817 82.9736 95.5883 81.9936 95.075C81.0136 94.5383 79.9519 94.27 78.8086 94.27C77.6419 94.27 76.5686 94.5383 75.5886 95.075C74.6319 95.5883 73.8619 96.3817 73.2786 97.455C72.6952 98.5283 72.4036 99.835 72.4036 101.375C72.4036 102.938 72.6836 104.257 73.2436 105.33C73.8269 106.403 74.5969 107.208 75.5536 107.745C76.5102 108.258 77.5602 108.515 78.7036 108.515ZM101.091 111.315C99.2946 111.315 97.6613 110.907 96.1913 110.09C94.7446 109.273 93.6013 108.118 92.7613 106.625C91.9446 105.108 91.5363 103.358 91.5363 101.375C91.5363 99.415 91.9563 97.6883 92.7963 96.195C93.6596 94.6783 94.8263 93.5233 96.2963 92.73C97.7663 91.9133 99.4113 91.505 101.231 91.505C103.051 91.505 104.696 91.9133 106.166 92.73C107.636 93.5233 108.791 94.6667 109.631 96.16C110.495 97.6533 110.926 99.3917 110.926 101.375C110.926 103.358 110.483 105.108 109.596 106.625C108.733 108.118 107.555 109.273 106.061 110.09C104.568 110.907 102.911 111.315 101.091 111.315ZM101.091 108.515C102.235 108.515 103.308 108.247 104.311 107.71C105.315 107.173 106.12 106.368 106.726 105.295C107.356 104.222 107.671 102.915 107.671 101.375C107.671 99.835 107.368 98.5283 106.761 97.455C106.155 96.3817 105.361 95.5883 104.381 95.075C103.401 94.5383 102.34 94.27 101.196 94.27C100.03 94.27 98.9563 94.5383 97.9763 95.075C97.0196 95.5883 96.2496 96.3817 95.6663 97.455C95.0829 98.5283 94.7913 99.835 94.7913 101.375C94.7913 102.938 95.0713 104.257 95.6313 105.33C96.2146 106.403 96.9846 107.208 97.9413 107.745C98.8979 108.258 99.9479 108.515 101.091 108.515ZM118.299 95.355C118.929 94.2583 119.862 93.3483 121.099 92.625C122.359 91.8783 123.817 91.505 125.474 91.505C127.177 91.505 128.717 91.9133 130.094 92.73C131.494 93.5467 132.591 94.7017 133.384 96.195C134.177 97.665 134.574 99.38 134.574 101.34C134.574 103.277 134.177 105.003 133.384 106.52C132.591 108.037 131.494 109.215 130.094 110.055C128.717 110.895 127.177 111.315 125.474 111.315C123.841 111.315 122.394 110.953 121.134 110.23C119.897 109.483 118.952 108.562 118.299 107.465V120.1H115.114V91.82H118.299V95.355ZM131.319 101.34C131.319 99.8933 131.027 98.6333 130.444 97.56C129.861 96.4867 129.067 95.67 128.064 95.11C127.084 94.55 125.999 94.27 124.809 94.27C123.642 94.27 122.557 94.5617 121.554 95.145C120.574 95.705 119.781 96.5333 119.174 97.63C118.591 98.7033 118.299 99.9517 118.299 101.375C118.299 102.822 118.591 104.093 119.174 105.19C119.781 106.263 120.574 107.092 121.554 107.675C122.557 108.235 123.642 108.515 124.809 108.515C125.999 108.515 127.084 108.235 128.064 107.675C129.067 107.092 129.861 106.263 130.444 105.19C131.027 104.093 131.319 102.81 131.319 101.34ZM145.556 111.315C144.086 111.315 142.768 111.07 141.601 110.58C140.435 110.067 139.513 109.367 138.836 108.48C138.16 107.57 137.786 106.532 137.716 105.365H141.006C141.1 106.322 141.543 107.103 142.336 107.71C143.153 108.317 144.215 108.62 145.521 108.62C146.735 108.62 147.691 108.352 148.391 107.815C149.091 107.278 149.441 106.602 149.441 105.785C149.441 104.945 149.068 104.327 148.321 103.93C147.575 103.51 146.42 103.102 144.856 102.705C143.433 102.332 142.266 101.958 141.356 101.585C140.47 101.188 139.7 100.617 139.046 99.87C138.416 99.1 138.101 98.0967 138.101 96.86C138.101 95.88 138.393 94.9817 138.976 94.165C139.56 93.3483 140.388 92.7067 141.461 92.24C142.535 91.75 143.76 91.505 145.136 91.505C147.26 91.505 148.975 92.0417 150.281 93.115C151.588 94.1883 152.288 95.6583 152.381 97.525H149.196C149.126 96.5217 148.718 95.7167 147.971 95.11C147.248 94.5033 146.268 94.2 145.031 94.2C143.888 94.2 142.978 94.445 142.301 94.935C141.625 95.425 141.286 96.0667 141.286 96.86C141.286 97.49 141.485 98.015 141.881 98.435C142.301 98.8317 142.815 99.1583 143.421 99.415C144.051 99.6483 144.915 99.9167 146.011 100.22C147.388 100.593 148.508 100.967 149.371 101.34C150.235 101.69 150.97 102.227 151.576 102.95C152.206 103.673 152.533 104.618 152.556 105.785C152.556 106.835 152.265 107.78 151.681 108.62C151.098 109.46 150.27 110.125 149.196 110.615C148.146 111.082 146.933 111.315 145.556 111.315ZM155.757 105.365V102.95L168.042 85.94H171.857V102.6H175.357V105.365H171.857V111H168.707V105.365H155.757ZM168.847 89.265L159.432 102.6H168.847V89.265ZM196.074 91.82V111H192.889V108.165C192.282 109.145 191.431 109.915 190.334 110.475C189.261 111.012 188.071 111.28 186.764 111.28C185.271 111.28 183.929 110.977 182.739 110.37C181.549 109.74 180.604 108.807 179.904 107.57C179.227 106.333 178.889 104.828 178.889 103.055V91.82H182.039V102.635C182.039 104.525 182.517 105.983 183.474 107.01C184.431 108.013 185.737 108.515 187.394 108.515C189.097 108.515 190.439 107.99 191.419 106.94C192.399 105.89 192.889 104.362 192.889 102.355V91.82H196.074ZM205.337 94.445V105.75C205.337 106.683 205.535 107.348 205.932 107.745C206.329 108.118 207.017 108.305 207.997 108.305H210.342V111H207.472C205.699 111 204.369 110.592 203.482 109.775C202.595 108.958 202.152 107.617 202.152 105.75V94.445H199.667V91.82H202.152V86.99H205.337V91.82H210.342V94.445H205.337ZM231.701 100.675C231.701 101.282 231.666 101.923 231.596 102.6H216.266C216.383 104.49 217.024 105.972 218.191 107.045C219.381 108.095 220.816 108.62 222.496 108.62C223.873 108.62 225.016 108.305 225.926 107.675C226.859 107.022 227.513 106.158 227.886 105.085H231.316C230.803 106.928 229.776 108.433 228.236 109.6C226.696 110.743 224.783 111.315 222.496 111.315C220.676 111.315 219.043 110.907 217.596 110.09C216.173 109.273 215.053 108.118 214.236 106.625C213.419 105.108 213.011 103.358 213.011 101.375C213.011 99.3917 213.408 97.6533 214.201 96.16C214.994 94.6667 216.103 93.5233 217.526 92.73C218.973 91.9133 220.629 91.505 222.496 91.505C224.316 91.505 225.926 91.9017 227.326 92.695C228.726 93.4883 229.799 94.585 230.546 95.985C231.316 97.3617 231.701 98.925 231.701 100.675ZM228.411 100.01C228.411 98.7967 228.143 97.7583 227.606 96.895C227.069 96.0083 226.334 95.3433 225.401 94.9C224.491 94.4333 223.476 94.2 222.356 94.2C220.746 94.2 219.369 94.7133 218.226 95.74C217.106 96.7667 216.464 98.19 216.301 100.01H228.411ZM239.09 94.935C239.65 93.8383 240.443 92.9867 241.47 92.38C242.52 91.7733 243.792 91.47 245.285 91.47V94.76H244.445C240.875 94.76 239.09 96.6967 239.09 100.57V111H235.905V91.82H239.09V94.935ZM266.462 100.675C266.462 101.282 266.427 101.923 266.357 102.6H251.027C251.143 104.49 251.785 105.972 252.952 107.045C254.142 108.095 255.577 108.62 257.257 108.62C258.633 108.62 259.777 108.305 260.687 107.675C261.62 107.022 262.273 106.158 262.647 105.085H266.077C265.563 106.928 264.537 108.433 262.997 109.6C261.457 110.743 259.543 111.315 257.257 111.315C255.437 111.315 253.803 110.907 252.357 110.09C250.933 109.273 249.813 108.118 248.997 106.625C248.18 105.108 247.772 103.358 247.772 101.375C247.772 99.3917 248.168 97.6533 248.962 96.16C249.755 94.6667 250.863 93.5233 252.287 92.73C253.733 91.9133 255.39 91.505 257.257 91.505C259.077 91.505 260.687 91.9017 262.087 92.695C263.487 93.4883 264.56 94.585 265.307 95.985C266.077 97.3617 266.462 98.925 266.462 100.675ZM263.172 100.01C263.172 98.7967 262.903 97.7583 262.367 96.895C261.83 96.0083 261.095 95.3433 260.162 94.9C259.252 94.4333 258.237 94.2 257.117 94.2C255.507 94.2 254.13 94.7133 252.987 95.74C251.867 96.7667 251.225 98.19 251.062 100.01H263.172ZM277.456 111.315C275.986 111.315 274.667 111.07 273.501 110.58C272.334 110.067 271.412 109.367 270.736 108.48C270.059 107.57 269.686 106.532 269.616 105.365H272.906C272.999 106.322 273.442 107.103 274.236 107.71C275.052 108.317 276.114 108.62 277.421 108.62C278.634 108.62 279.591 108.352 280.291 107.815C280.991 107.278 281.341 106.602 281.341 105.785C281.341 104.945 280.967 104.327 280.221 103.93C279.474 103.51 278.319 103.102 276.756 102.705C275.332 102.332 274.166 101.958 273.256 101.585C272.369 101.188 271.599 100.617 270.946 99.87C270.316 99.1 270.001 98.0967 270.001 96.86C270.001 95.88 270.292 94.9817 270.876 94.165C271.459 93.3483 272.287 92.7067 273.361 92.24C274.434 91.75 275.659 91.505 277.036 91.505C279.159 91.505 280.874 92.0417 282.181 93.115C283.487 94.1883 284.187 95.6583 284.281 97.525H281.096C281.026 96.5217 280.617 95.7167 279.871 95.11C279.147 94.5033 278.167 94.2 276.931 94.2C275.787 94.2 274.877 94.445 274.201 94.935C273.524 95.425 273.186 96.0667 273.186 96.86C273.186 97.49 273.384 98.015 273.781 98.435C274.201 98.8317 274.714 99.1583 275.321 99.415C275.951 99.6483 276.814 99.9167 277.911 100.22C279.287 100.593 280.407 100.967 281.271 101.34C282.134 101.69 282.869 102.227 283.476 102.95C284.106 103.673 284.432 104.618 284.456 105.785C284.456 106.835 284.164 107.78 283.581 108.62C282.997 109.46 282.169 110.125 281.096 110.615C280.046 111.082 278.832 111.315 277.456 111.315ZM287.762 101.34C287.762 99.38 288.159 97.665 288.952 96.195C289.745 94.7017 290.83 93.5467 292.207 92.73C293.607 91.9133 295.159 91.505 296.862 91.505C298.542 91.505 300 91.8667 301.237 92.59C302.474 93.3133 303.395 94.2233 304.002 95.32V91.82H307.222V111H304.002V107.43C303.372 108.55 302.427 109.483 301.167 110.23C299.93 110.953 298.484 111.315 296.827 111.315C295.124 111.315 293.584 110.895 292.207 110.055C290.83 109.215 289.745 108.037 288.952 106.52C288.159 105.003 287.762 103.277 287.762 101.34ZM304.002 101.375C304.002 99.9283 303.71 98.6683 303.127 97.595C302.544 96.5217 301.75 95.705 300.747 95.145C299.767 94.5617 298.682 94.27 297.492 94.27C296.302 94.27 295.217 94.55 294.237 95.11C293.257 95.67 292.475 96.4867 291.892 97.56C291.309 98.6333 291.017 99.8933 291.017 101.34C291.017 102.81 291.309 104.093 291.892 105.19C292.475 106.263 293.257 107.092 294.237 107.675C295.217 108.235 296.302 108.515 297.492 108.515C298.682 108.515 299.767 108.235 300.747 107.675C301.75 107.092 302.544 106.263 303.127 105.19C303.71 104.093 304.002 102.822 304.002 101.375ZM330.104 88.565C332.694 88.565 334.946 89.055 336.859 90.035C338.773 91.015 340.243 92.3917 341.269 94.165C342.296 95.915 342.809 97.945 342.809 100.255C342.809 102.098 342.506 103.872 341.899 105.575C341.293 107.255 340.406 108.62 339.239 109.67C338.096 110.72 336.754 111.245 335.214 111.245C334.048 111.245 333.149 110.953 332.519 110.37C331.889 109.787 331.528 108.993 331.434 107.99C330.711 108.993 329.789 109.787 328.669 110.37C327.573 110.953 326.406 111.245 325.169 111.245C323.396 111.245 321.996 110.708 320.969 109.635C319.966 108.538 319.464 107.068 319.464 105.225C319.464 103.475 319.826 101.842 320.549 100.325C321.296 98.8083 322.323 97.595 323.629 96.685C324.936 95.7517 326.418 95.285 328.074 95.285C330.291 95.285 331.784 96.125 332.554 97.805L332.939 95.635H335.704L333.954 105.75C333.884 106.193 333.849 106.602 333.849 106.975C333.849 108.375 334.468 109.075 335.704 109.075C336.638 109.075 337.443 108.632 338.119 107.745C338.819 106.858 339.344 105.75 339.694 104.42C340.044 103.067 340.219 101.737 340.219 100.43C340.219 97.3733 339.298 95.005 337.454 93.325C335.634 91.645 333.056 90.805 329.719 90.805C326.943 90.805 324.434 91.4817 322.194 92.835C319.978 94.165 318.239 95.9967 316.979 98.33C315.719 100.663 315.089 103.242 315.089 106.065C315.066 109.145 315.988 111.513 317.854 113.17C319.721 114.85 322.311 115.69 325.624 115.69C327.818 115.69 329.754 115.293 331.434 114.5L331.854 116.67C329.778 117.533 327.491 117.965 324.994 117.965C322.498 117.965 320.293 117.487 318.379 116.53C316.489 115.597 315.019 114.243 313.969 112.47C312.943 110.72 312.429 108.678 312.429 106.345C312.429 103.055 313.188 100.057 314.704 97.35C316.221 94.62 318.321 92.4733 321.004 90.91C323.711 89.3467 326.744 88.565 330.104 88.565ZM326.114 108.76C327.164 108.76 328.133 108.457 329.019 107.85C329.906 107.22 330.606 106.38 331.119 105.33C331.633 104.257 331.889 103.09 331.889 101.83C331.889 100.617 331.551 99.6367 330.874 98.89C330.221 98.12 329.288 97.735 328.074 97.735C326.954 97.735 325.963 98.0733 325.099 98.75C324.259 99.4033 323.606 100.278 323.139 101.375C322.673 102.448 322.439 103.568 322.439 104.735C322.439 105.972 322.754 106.952 323.384 107.675C324.014 108.398 324.924 108.76 326.114 108.76ZM355.959 91.505C357.615 91.505 359.062 91.8667 360.299 92.59C361.559 93.3133 362.492 94.2233 363.099 95.32V91.82H366.319V111.42C366.319 113.17 365.945 114.722 365.199 116.075C364.452 117.452 363.379 118.525 361.979 119.295C360.602 120.065 358.992 120.45 357.149 120.45C354.629 120.45 352.529 119.855 350.849 118.665C349.169 117.475 348.177 115.853 347.874 113.8H351.024C351.374 114.967 352.097 115.9 353.194 116.6C354.29 117.323 355.609 117.685 357.149 117.685C358.899 117.685 360.322 117.137 361.419 116.04C362.539 114.943 363.099 113.403 363.099 111.42V107.395C362.469 108.515 361.535 109.448 360.299 110.195C359.062 110.942 357.615 111.315 355.959 111.315C354.255 111.315 352.704 110.895 351.304 110.055C349.927 109.215 348.842 108.037 348.049 106.52C347.255 105.003 346.859 103.277 346.859 101.34C346.859 99.38 347.255 97.665 348.049 96.195C348.842 94.7017 349.927 93.5467 351.304 92.73C352.704 91.9133 354.255 91.505 355.959 91.505ZM363.099 101.375C363.099 99.9283 362.807 98.6683 362.224 97.595C361.64 96.5217 360.847 95.705 359.844 95.145C358.864 94.5617 357.779 94.27 356.589 94.27C355.399 94.27 354.314 94.55 353.334 95.11C352.354 95.67 351.572 96.4867 350.989 97.56C350.405 98.6333 350.114 99.8933 350.114 101.34C350.114 102.81 350.405 104.093 350.989 105.19C351.572 106.263 352.354 107.092 353.334 107.675C354.314 108.235 355.399 108.515 356.589 108.515C357.779 108.515 358.864 108.235 359.844 107.675C360.847 107.092 361.64 106.263 362.224 105.19C362.807 104.093 363.099 102.822 363.099 101.375ZM394.766 91.47C396.259 91.47 397.589 91.785 398.756 92.415C399.923 93.0217 400.844 93.9433 401.521 95.18C402.198 96.4167 402.536 97.9217 402.536 99.695V111H399.386V100.15C399.386 98.2367 398.908 96.7783 397.951 95.775C397.018 94.7483 395.746 94.235 394.136 94.235C392.479 94.235 391.161 94.7717 390.181 95.845C389.201 96.895 388.711 98.4233 388.711 100.43V111H385.561V100.15C385.561 98.2367 385.083 96.7783 384.126 95.775C383.193 94.7483 381.921 94.235 380.311 94.235C378.654 94.235 377.336 94.7717 376.356 95.845C375.376 96.895 374.886 98.4233 374.886 100.43V111H371.701V91.82H374.886V94.585C375.516 93.5817 376.356 92.8117 377.406 92.275C378.479 91.7383 379.658 91.47 380.941 91.47C382.551 91.47 383.974 91.8317 385.211 92.555C386.448 93.2783 387.369 94.34 387.976 95.74C388.513 94.3867 389.399 93.3367 390.636 92.59C391.873 91.8433 393.249 91.47 394.766 91.47ZM406.57 101.34C406.57 99.38 406.967 97.665 407.76 96.195C408.554 94.7017 409.639 93.5467 411.015 92.73C412.415 91.9133 413.967 91.505 415.67 91.505C417.35 91.505 418.809 91.8667 420.045 92.59C421.282 93.3133 422.204 94.2233 422.81 95.32V91.82H426.03V111H422.81V107.43C422.18 108.55 421.235 109.483 419.975 110.23C418.739 110.953 417.292 111.315 415.635 111.315C413.932 111.315 412.392 110.895 411.015 110.055C409.639 109.215 408.554 108.037 407.76 106.52C406.967 105.003 406.57 103.277 406.57 101.34ZM422.81 101.375C422.81 99.9283 422.519 98.6683 421.935 97.595C421.352 96.5217 420.559 95.705 419.555 95.145C418.575 94.5617 417.49 94.27 416.3 94.27C415.11 94.27 414.025 94.55 413.045 95.11C412.065 95.67 411.284 96.4867 410.7 97.56C410.117 98.6333 409.825 99.8933 409.825 101.34C409.825 102.81 410.117 104.093 410.7 105.19C411.284 106.263 412.065 107.092 413.045 107.675C414.025 108.235 415.11 108.515 416.3 108.515C417.49 108.515 418.575 108.235 419.555 107.675C420.559 107.092 421.352 106.263 421.935 105.19C422.519 104.093 422.81 102.822 422.81 101.375ZM433.058 88.705C432.451 88.705 431.938 88.495 431.518 88.075C431.098 87.655 430.888 87.1417 430.888 86.535C430.888 85.9283 431.098 85.415 431.518 84.995C431.938 84.575 432.451 84.365 433.058 84.365C433.641 84.365 434.131 84.575 434.528 84.995C434.948 85.415 435.158 85.9283 435.158 86.535C435.158 87.1417 434.948 87.655 434.528 88.075C434.131 88.495 433.641 88.705 433.058 88.705ZM434.598 91.82V111H431.413V91.82H434.598ZM443.211 85.1V111H440.026V85.1H443.211ZM449.654 111.21C449.048 111.21 448.534 111 448.114 110.58C447.694 110.16 447.484 109.647 447.484 109.04C447.484 108.433 447.694 107.92 448.114 107.5C448.534 107.08 449.048 106.87 449.654 106.87C450.238 106.87 450.728 107.08 451.124 107.5C451.544 107.92 451.754 108.433 451.754 109.04C451.754 109.647 451.544 110.16 451.124 110.58C450.728 111 450.238 111.21 449.654 111.21ZM454.798 101.375C454.798 99.3917 455.195 97.665 455.988 96.195C456.781 94.7017 457.878 93.5467 459.278 92.73C460.701 91.9133 462.323 91.505 464.143 91.505C466.5 91.505 468.436 92.0767 469.953 93.22C471.493 94.3633 472.508 95.95 472.998 97.98H469.568C469.241 96.8133 468.6 95.8917 467.643 95.215C466.71 94.5383 465.543 94.2 464.143 94.2C462.323 94.2 460.853 94.83 459.733 96.09C458.613 97.3267 458.053 99.0883 458.053 101.375C458.053 103.685 458.613 105.47 459.733 106.73C460.853 107.99 462.323 108.62 464.143 108.62C465.543 108.62 466.71 108.293 467.643 107.64C468.576 106.987 469.218 106.053 469.568 104.84H472.998C472.485 106.8 471.458 108.375 469.918 109.565C468.378 110.732 466.453 111.315 464.143 111.315C462.323 111.315 460.701 110.907 459.278 110.09C457.878 109.273 456.781 108.118 455.988 106.625C455.195 105.132 454.798 103.382 454.798 101.375ZM485.613 111.315C483.816 111.315 482.183 110.907 480.713 110.09C479.266 109.273 478.123 108.118 477.283 106.625C476.466 105.108 476.058 103.358 476.058 101.375C476.058 99.415 476.478 97.6883 477.318 96.195C478.181 94.6783 479.348 93.5233 480.818 92.73C482.288 91.9133 483.933 91.505 485.753 91.505C487.573 91.505 489.218 91.9133 490.688 92.73C492.158 93.5233 493.313 94.6667 494.153 96.16C495.016 97.6533 495.448 99.3917 495.448 101.375C495.448 103.358 495.004 105.108 494.118 106.625C493.254 108.118 492.076 109.273 490.583 110.09C489.089 110.907 487.433 111.315 485.613 111.315ZM485.613 108.515C486.756 108.515 487.829 108.247 488.833 107.71C489.836 107.173 490.641 106.368 491.248 105.295C491.878 104.222 492.193 102.915 492.193 101.375C492.193 99.835 491.889 98.5283 491.283 97.455C490.676 96.3817 489.883 95.5883 488.903 95.075C487.923 94.5383 486.861 94.27 485.718 94.27C484.551 94.27 483.478 94.5383 482.498 95.075C481.541 95.5883 480.771 96.3817 480.188 97.455C479.604 98.5283 479.313 99.835 479.313 101.375C479.313 102.938 479.593 104.257 480.153 105.33C480.736 106.403 481.506 107.208 482.463 107.745C483.419 108.258 484.469 108.515 485.613 108.515ZM522.7 91.47C524.194 91.47 525.524 91.785 526.69 92.415C527.857 93.0217 528.779 93.9433 529.455 95.18C530.132 96.4167 530.47 97.9217 530.47 99.695V111H527.32V100.15C527.32 98.2367 526.842 96.7783 525.885 95.775C524.952 94.7483 523.68 94.235 522.07 94.235C520.414 94.235 519.095 94.7717 518.115 95.845C517.135 96.895 516.645 98.4233 516.645 100.43V111H513.495V100.15C513.495 98.2367 513.017 96.7783 512.06 95.775C511.127 94.7483 509.855 94.235 508.245 94.235C506.589 94.235 505.27 94.7717 504.29 95.845C503.31 96.895 502.82 98.4233 502.82 100.43V111H499.635V91.82H502.82V94.585C503.45 93.5817 504.29 92.8117 505.34 92.275C506.414 91.7383 507.592 91.47 508.875 91.47C510.485 91.47 511.909 91.8317 513.145 92.555C514.382 93.2783 515.304 94.34 515.91 95.74C516.447 94.3867 517.334 93.3367 518.57 92.59C519.807 91.8433 521.184 91.47 522.7 91.47ZM309.447 140.085C309.447 136.072 310.101 132.945 311.407 130.705C312.714 128.442 315.001 127.31 318.267 127.31C321.511 127.31 323.786 128.442 325.092 130.705C326.399 132.945 327.052 136.072 327.052 140.085C327.052 144.168 326.399 147.342 325.092 149.605C323.786 151.868 321.511 153 318.267 153C315.001 153 312.714 151.868 311.407 149.605C310.101 147.342 309.447 144.168 309.447 140.085ZM323.902 140.085C323.902 138.055 323.762 136.34 323.482 134.94C323.226 133.517 322.677 132.373 321.837 131.51C321.021 130.647 319.831 130.215 318.267 130.215C316.681 130.215 315.467 130.647 314.627 131.51C313.811 132.373 313.262 133.517 312.982 134.94C312.726 136.34 312.597 138.055 312.597 140.085C312.597 142.185 312.726 143.947 312.982 145.37C313.262 146.793 313.811 147.937 314.627 148.8C315.467 149.663 316.681 150.095 318.267 150.095C319.831 150.095 321.021 149.663 321.837 148.8C322.677 147.937 323.226 146.793 323.482 145.37C323.762 143.947 323.902 142.185 323.902 140.085ZM335.52 146.21C335.753 147.54 336.29 148.567 337.13 149.29C337.993 150.013 339.148 150.375 340.595 150.375C342.532 150.375 343.955 149.617 344.865 148.1C345.798 146.583 346.242 144.028 346.195 140.435C345.705 141.485 344.888 142.313 343.745 142.92C342.602 143.503 341.33 143.795 339.93 143.795C338.367 143.795 336.967 143.48 335.73 142.85C334.517 142.197 333.56 141.252 332.86 140.015C332.16 138.778 331.81 137.285 331.81 135.535C331.81 133.038 332.533 131.032 333.98 129.515C335.427 127.975 337.48 127.205 340.14 127.205C343.407 127.205 345.693 128.267 347 130.39C348.33 132.513 348.995 135.675 348.995 139.875C348.995 142.815 348.727 145.242 348.19 147.155C347.677 149.068 346.79 150.527 345.53 151.53C344.293 152.533 342.59 153.035 340.42 153.035C338.04 153.035 336.185 152.393 334.855 151.11C333.525 149.827 332.767 148.193 332.58 146.21H335.52ZM340.455 141.1C342.018 141.1 343.302 140.622 344.305 139.665C345.308 138.685 345.81 137.367 345.81 135.71C345.81 133.96 345.32 132.548 344.34 131.475C343.36 130.402 341.983 129.865 340.21 129.865C338.577 129.865 337.27 130.378 336.29 131.405C335.333 132.432 334.855 133.785 334.855 135.465C334.855 137.168 335.333 138.533 336.29 139.56C337.247 140.587 338.635 141.1 340.455 141.1ZM353.401 134.065C353.564 131.918 354.392 130.238 355.886 129.025C357.379 127.812 359.316 127.205 361.696 127.205C363.282 127.205 364.647 127.497 365.791 128.08C366.957 128.64 367.832 129.41 368.416 130.39C369.022 131.37 369.326 132.478 369.326 133.715C369.326 135.162 368.906 136.41 368.066 137.46C367.249 138.51 366.176 139.187 364.846 139.49V139.665C366.362 140.038 367.564 140.773 368.451 141.87C369.337 142.967 369.781 144.402 369.781 146.175C369.781 147.505 369.477 148.707 368.871 149.78C368.264 150.83 367.354 151.658 366.141 152.265C364.927 152.872 363.469 153.175 361.766 153.175C359.292 153.175 357.262 152.533 355.676 151.25C354.089 149.943 353.202 148.1 353.016 145.72H356.096C356.259 147.12 356.831 148.263 357.811 149.15C358.791 150.037 360.097 150.48 361.731 150.48C363.364 150.48 364.601 150.06 365.441 149.22C366.304 148.357 366.736 147.248 366.736 145.895C366.736 144.145 366.152 142.885 364.986 142.115C363.819 141.345 362.057 140.96 359.701 140.96H358.896V138.3H359.736C361.882 138.277 363.504 137.927 364.601 137.25C365.697 136.55 366.246 135.477 366.246 134.03C366.246 132.793 365.837 131.802 365.021 131.055C364.227 130.308 363.084 129.935 361.591 129.935C360.144 129.935 358.977 130.308 358.091 131.055C357.204 131.802 356.679 132.805 356.516 134.065H353.401ZM388.186 133.715C387.673 131.125 386.074 129.83 383.391 129.83C381.314 129.83 379.763 130.635 378.736 132.245C377.709 133.832 377.208 136.457 377.231 140.12C377.768 138.907 378.654 137.962 379.891 137.285C381.151 136.585 382.551 136.235 384.091 136.235C386.494 136.235 388.408 136.982 389.831 138.475C391.278 139.968 392.001 142.033 392.001 144.67C392.001 146.257 391.686 147.68 391.056 148.94C390.449 150.2 389.516 151.203 388.256 151.95C387.019 152.697 385.514 153.07 383.741 153.07C381.338 153.07 379.459 152.533 378.106 151.46C376.753 150.387 375.808 148.905 375.271 147.015C374.734 145.125 374.466 142.792 374.466 140.015C374.466 131.452 377.453 127.17 383.426 127.17C385.713 127.17 387.509 127.788 388.816 129.025C390.123 130.262 390.893 131.825 391.126 133.715H388.186ZM383.426 138.93C382.423 138.93 381.478 139.14 380.591 139.56C379.704 139.957 378.981 140.575 378.421 141.415C377.884 142.232 377.616 143.235 377.616 144.425C377.616 146.198 378.129 147.645 379.156 148.765C380.183 149.862 381.653 150.41 383.566 150.41C385.199 150.41 386.494 149.908 387.451 148.905C388.431 147.878 388.921 146.502 388.921 144.775C388.921 142.955 388.454 141.532 387.521 140.505C386.588 139.455 385.223 138.93 383.426 138.93ZM395.528 147.365V144.95L407.813 127.94H411.628V144.6H415.128V147.365H411.628V153H408.478V147.365H395.528ZM408.618 131.265L399.203 144.6H408.618V131.265ZM432.415 133.715C431.901 131.125 430.303 129.83 427.62 129.83C425.543 129.83 423.991 130.635 422.965 132.245C421.938 133.832 421.436 136.457 421.46 140.12C421.996 138.907 422.883 137.962 424.12 137.285C425.38 136.585 426.78 136.235 428.32 136.235C430.723 136.235 432.636 136.982 434.06 138.475C435.506 139.968 436.23 142.033 436.23 144.67C436.23 146.257 435.915 147.68 435.285 148.94C434.678 150.2 433.745 151.203 432.485 151.95C431.248 152.697 429.743 153.07 427.97 153.07C425.566 153.07 423.688 152.533 422.335 151.46C420.981 150.387 420.036 148.905 419.5 147.015C418.963 145.125 418.695 142.792 418.695 140.015C418.695 131.452 421.681 127.17 427.655 127.17C429.941 127.17 431.738 127.788 433.045 129.025C434.351 130.262 435.121 131.825 435.355 133.715H432.415ZM427.655 138.93C426.651 138.93 425.706 139.14 424.82 139.56C423.933 139.957 423.21 140.575 422.65 141.415C422.113 142.232 421.845 143.235 421.845 144.425C421.845 146.198 422.358 147.645 423.385 148.765C424.411 149.862 425.881 150.41 427.795 150.41C429.428 150.41 430.723 149.908 431.68 148.905C432.66 147.878 433.15 146.502 433.15 144.775C433.15 142.955 432.683 141.532 431.75 140.505C430.816 139.455 429.451 138.93 427.655 138.93ZM456.101 130.18L446.371 153H443.151L453.021 130.495H439.511V127.765H456.101V130.18ZM458.793 130.6V127.695H465.373V153H462.153V130.6H458.793ZM470.844 140.085C470.844 136.072 471.497 132.945 472.804 130.705C474.11 128.442 476.397 127.31 479.664 127.31C482.907 127.31 485.182 128.442 486.489 130.705C487.795 132.945 488.449 136.072 488.449 140.085C488.449 144.168 487.795 147.342 486.489 149.605C485.182 151.868 482.907 153 479.664 153C476.397 153 474.11 151.868 472.804 149.605C471.497 147.342 470.844 144.168 470.844 140.085ZM485.299 140.085C485.299 138.055 485.159 136.34 484.879 134.94C484.622 133.517 484.074 132.373 483.234 131.51C482.417 130.647 481.227 130.215 479.664 130.215C478.077 130.215 476.864 130.647 476.024 131.51C475.207 132.373 474.659 133.517 474.379 134.94C474.122 136.34 473.994 138.055 473.994 140.085C473.994 142.185 474.122 143.947 474.379 145.37C474.659 146.793 475.207 147.937 476.024 148.8C476.864 149.663 478.077 150.095 479.664 150.095C481.227 150.095 482.417 149.663 483.234 148.8C484.074 147.937 484.622 146.793 484.879 145.37C485.159 143.947 485.299 142.185 485.299 140.085ZM506.926 133.715C506.413 131.125 504.815 129.83 502.131 129.83C500.055 129.83 498.503 130.635 497.476 132.245C496.45 133.832 495.948 136.457 495.971 140.12C496.508 138.907 497.395 137.962 498.631 137.285C499.891 136.585 501.291 136.235 502.831 136.235C505.235 136.235 507.148 136.982 508.571 138.475C510.018 139.968 510.741 142.033 510.741 144.67C510.741 146.257 510.426 147.68 509.796 148.94C509.19 150.2 508.256 151.203 506.996 151.95C505.76 152.697 504.255 153.07 502.481 153.07C500.078 153.07 498.2 152.533 496.846 151.46C495.493 150.387 494.548 148.905 494.011 147.015C493.475 145.125 493.206 142.792 493.206 140.015C493.206 131.452 496.193 127.17 502.166 127.17C504.453 127.17 506.25 127.788 507.556 129.025C508.863 130.262 509.633 131.825 509.866 133.715H506.926ZM502.166 138.93C501.163 138.93 500.218 139.14 499.331 139.56C498.445 139.957 497.721 140.575 497.161 141.415C496.625 142.232 496.356 143.235 496.356 144.425C496.356 146.198 496.87 147.645 497.896 148.765C498.923 149.862 500.393 150.41 502.306 150.41C503.94 150.41 505.235 149.908 506.191 148.905C507.171 147.878 507.661 146.502 507.661 144.775C507.661 142.955 507.195 141.532 506.261 140.505C505.328 139.455 503.963 138.93 502.166 138.93ZM514.653 150.445C517.616 148.065 519.938 146.117 521.618 144.6C523.298 143.06 524.71 141.462 525.853 139.805C527.02 138.125 527.603 136.48 527.603 134.87C527.603 133.353 527.23 132.163 526.483 131.3C525.76 130.413 524.581 129.97 522.948 129.97C521.361 129.97 520.125 130.472 519.238 131.475C518.375 132.455 517.908 133.773 517.838 135.43H514.758C514.851 132.817 515.645 130.798 517.138 129.375C518.631 127.952 520.556 127.24 522.913 127.24C525.316 127.24 527.218 127.905 528.618 129.235C530.041 130.565 530.753 132.397 530.753 134.73C530.753 136.667 530.17 138.557 529.003 140.4C527.86 142.22 526.553 143.83 525.083 145.23C523.613 146.607 521.735 148.217 519.448 150.06H531.488V152.72H514.653V150.445Z" fill="#001BDE"/>
</svg>
