<svg width="419" height="373" viewBox="0 0 419 373" fill="none" xmlns="http://www.w3.org/2000/svg">
<path d="M3.04152 359.793C2.09854 359.217 0.867808 359.516 0.292593 360.458C-0.282622 361.401 0.0155066 362.632 0.958482 363.207L3.04152 359.793ZM413.925 1.45654C413.625 0.393533 412.52 -0.224891 411.457 0.0752524L394.134 4.96638C393.071 5.26652 392.452 6.37157 392.753 7.43458C393.053 8.49759 394.158 9.11601 395.221 8.81587L410.619 4.46821L414.966 19.8662C415.267 20.9292 416.372 21.5476 417.435 21.2475C418.498 20.9473 419.116 19.8423 418.816 18.7793L413.925 1.45654ZM0.958482 363.207C14.0043 371.165 34.1838 373.823 56.8416 371.174C79.5689 368.517 105.079 360.492 128.997 346.734C176.871 319.197 218.5 268.596 218.5 192H214.5C214.5 266.904 173.879 316.303 127.003 343.266C103.546 356.758 78.5561 364.608 56.3771 367.201C34.1287 369.802 14.9957 367.085 3.04152 359.793L0.958482 363.207ZM218.5 192C218.5 157.996 228.665 132.745 244.322 113.094C260.016 93.3964 281.312 79.2176 303.736 67.5413C314.943 61.706 326.398 56.5118 337.55 51.565C348.682 46.627 359.54 41.9233 369.46 37.1022C389.206 27.5055 405.784 17.2033 413.745 2.97672L410.255 1.02328C402.966 14.0467 387.482 23.8961 367.712 33.5046C357.874 38.286 347.111 42.9484 335.928 47.9086C324.766 52.8602 313.213 58.0967 301.889 63.9935C279.25 75.7813 257.391 90.2721 241.194 110.601C224.96 130.977 214.5 157.111 214.5 192H218.5Z" fill="#001BDE"/>
</svg>
